<svg xmlns="http://www.w3.org/2000/svg" xmlns:xlink="http://www.w3.org/1999/xlink" width="6748" height="5981" viewBox="0 0 6748 5981"><svg width="256" height="272" viewBox="0 0 256 272" preserveAspectRatio="xMidYMid" id="angular" x="0" y="0"><path d="M.1 45.522L125.908.697l129.196 44.028-20.919 166.45-108.277 59.966-106.583-59.169L.1 45.522z" fill="#E23237"></path><path d="M255.104 44.725L125.908.697v270.444l108.277-59.866 20.919-166.55z" fill="#B52E31"></path><path d="M126.107 32.274L47.714 206.693l29.285-.498 15.739-39.347h70.325l17.233 39.845 27.99.498-82.179-174.917zm.2 55.882l26.496 55.383h-49.806l23.31-55.383z" fill="#FFF"></path></svg><svg width="256" height="256" viewBox="0 0 256 256" preserveAspectRatio="xMidYMid" id="bootstrap" x="256" y="272"><path d="M0 222.991C0 241.223 14.779 256 33.009 256H222.99C241.223 256 256 241.221 256 222.991V33.01C256 14.777 241.221 0 222.991 0H33.01C14.777 0 0 14.779 0 33.009V222.99z" fill="#563D7C"></path><path d="M106.158 113.238V76.985h31.911c3.04 0 5.97.253 8.792.76 2.822.506 5.319 1.41 7.49 2.713 2.17 1.303 3.907 3.112 5.21 5.427 1.302 2.316 1.954 5.283 1.954 8.9 0 6.513-1.954 11.217-5.862 14.111-3.907 2.895-8.9 4.342-14.979 4.342h-34.516zM72.075 50.5v155h75.112c6.947 0 13.713-.868 20.298-2.605 6.585-1.737 12.446-4.414 17.584-8.032 5.137-3.618 9.226-8.286 12.265-14.002 3.04-5.717 4.559-12.483 4.559-20.298 0-9.697-2.352-17.982-7.055-24.856-4.704-6.875-11.832-11.687-21.384-14.437 6.947-3.328 12.194-7.598 15.74-12.808 3.545-5.21 5.318-11.722 5.318-19.538 0-7.236-1.194-13.314-3.582-18.235-2.388-4.92-5.753-8.864-10.095-11.831-4.341-2.967-9.551-5.102-15.63-6.404-6.078-1.303-12.808-1.954-20.189-1.954H72.075zm34.083 128.515v-42.549h37.121c7.381 0 13.315 1.7 17.802 5.102 4.486 3.401 6.73 9.081 6.73 17.041 0 4.053-.688 7.381-2.063 9.986-1.375 2.605-3.22 4.668-5.536 6.187-2.315 1.52-4.993 2.605-8.032 3.257-3.04.65-6.223.976-9.552.976h-36.47z" fill="#FFF"></path></svg><svg width="386.916" height="546.133" viewBox="0 0 362.73401 511.99998" id="css3" x="512" y="528"><g transform="translate(-74.633)"><path fill="#264de4" d="M437.367 100.62l-33.046 370.199L255.778 512l-148.134-41.123L74.633 100.62z"></path><path fill="#2965f1" d="M376.03 447.246l28.24-316.352H256v349.629z"></path><path fill="#ebebeb" d="M150.31 268.217l4.07 45.41H256v-45.41zM256 176.305H142.132l4.128 45.411H256zM256 433.399v-47.246l-.199.053-50.574-13.656-3.233-36.217h-45.585l6.362 71.301 93.02 25.823z"></path><path d="M160 0h55v23h-32v23h32v23h-55zM226 0h55v20h-32v4h32v46h-55V49h32v-4h-32zM292 0h55v20h-32v4h32v46h-55V49h32v-4h-32z"></path><path fill="#fff" d="M311.761 313.627l-5.271 58.894-50.647 13.67v47.244l93.094-25.801.683-7.672 10.671-119.551 1.108-12.194 8.198-91.912H255.843v45.411h63.988l-4.132 46.501h-59.856v45.41z"></path></g></svg><svg width="256" height="256" viewBox="0 0 256 256" preserveAspectRatio="xMidYMid" id="git-icon" x="899" y="1075"><path d="M251.172 116.594L139.4 4.828c-6.433-6.437-16.873-6.437-23.314 0l-23.21 23.21 29.443 29.443c6.842-2.312 14.688-.761 20.142 4.693 5.48 5.489 7.02 13.402 4.652 20.266l28.375 28.376c6.865-2.365 14.786-.835 20.269 4.657 7.663 7.66 7.663 20.075 0 27.74-7.665 7.666-20.08 7.666-27.749 0-5.764-5.77-7.188-14.235-4.27-21.336l-26.462-26.462-.003 69.637a19.82 19.82 0 0 1 5.188 3.71c7.663 7.66 7.663 20.076 0 27.747-7.665 7.662-20.086 7.662-27.74 0-7.663-7.671-7.663-20.086 0-27.746a19.654 19.654 0 0 1 6.421-4.281V94.196a19.378 19.378 0 0 1-6.421-4.281c-5.806-5.798-7.202-14.317-4.227-21.446L81.47 39.442l-76.64 76.635c-6.44 6.443-6.44 16.884 0 23.322l111.774 111.768c6.435 6.438 16.873 6.438 23.316 0l111.251-111.249c6.438-6.44 6.438-16.887 0-23.324" fill="#DE4C36"></path></svg><svg width="256" height="344" viewBox="0 0 256 344" preserveAspectRatio="xMidYMid" id="grunt" x="1155" y="1331"><path d="M17.297 83.373s5.875 22.658 6.713 30.212c.84 7.552-15.105 24.336-15.105 32.728 0 8.393 3.352 23.498 21.817 31.052 18.465 7.553 20.98 26.853 20.98 38.605 0 11.748-6.713 34.404-6.713 34.404S40.795 306.6 63.451 316.67c22.656 10.069 17.623 10.069 22.656 10.069 5.034 0 41.96 15.11 63.778 9.234 21.82-5.874 27.69-12.587 27.69-12.587s21.821 1.677 28.534-17.627c6.716-19.3 10.91-59.58 8.391-78.043-2.518-18.465-5.873-42.797 9.23-51.19 15.11-8.393 31.052-18.46 28.534-26.854-2.518-8.393-15.941-20.142-15.941-20.142s-3.358-20.978-.842-26.014c2.516-5.035 17.623-17.626 9.23-26.855-8.387-9.23-23.497-9.23-23.497-9.23l-19.3 1.676s-32.728-29.37-75.527-27.692C83.59 43.093 56.734 69.107 56.734 69.107s-14.265-5.035-26.854 0c-12.589 5.037-15.099-.001-12.583 14.266z" fill="#FBA919"></path><path d="M93.978 208.32s-16.619 25.41-28.809 43.443c-1.886 2.79 12.19 2.983 12.19 2.983l16.619-46.427zM101.89 155.637s-5.01 12.498-7.754 19.123c-2.978 7.203-14.336 10.786-14.336 10.786s5.887-6.175 5.887-21.818c0-6.562 8.473-9.172 8.473-9.172l7.73 1.08z" fill="#E78724"></path><path d="M96.83 162.703s-10.264 12.218-29.32 5.375c-19.061-6.84-21.015-31.278-21.015-38.12 0-6.842 36.164 6.842 41.053 9.775 4.888 2.933 14.168 14.66 9.281 22.97zM24.843 32.153s17.593-3.424 29.32 5.863c11.733 9.285 15.15 16.617 15.15 16.617l-19.769 15.67s-9.552-4.428-12.484-17.136c-2.932-12.707-.977-18.57-12.217-21.014z" fill="#E78724"></path><path d="M91.698 127.413c-7.574-10.752-20.057-15.442-30.024-16.219-16.994-1.329-25.062 4.679-25.062 4.679s27.832 1.178 35.854 11.714c14.934 19.61 36.721 21.203 40.205 16.896-4.029.201-8.46-1.795-13.204-6.28-2.963-2.806-5.365-7.377-7.769-10.79zM44.714 165.431s-30.88-10.616-25.011-21.365c5.863-10.753 1.196-16.612 1.196-16.612S3.656 140.326 8.049 154.01c2.701 8.398 7.231 14.479 32.107 26.137 11.932 22.163 2.464 62.055 3.031 62.242.945.314 16.753-7.813 15.674-45.135-.33-11.46-1.246-27.106-14.147-31.822zM85.18 51.276c-12.948 6.578-30.687 15.739-30.687 15.739l6.982 3.493c-.667 1.079-.988 1.723-.988 1.723l7.166 3.258s17.493 12.672 28.21 20.82C92.29 85.303 81.8 68.016 81.8 68.016s-2.972-7.943 3.38-16.741zM128.196 319.42c-39.8 0-53.28-20.204-53.28-20.204l6.22 15.146c2.35 6.552 27.43 26.942 47 26.942" fill="#E78724"></path><path d="M79.277 285.564s3.662 22.378 18.324 22.378c12.459 0 16.13-18.903 16.13-22.81l-34.454.432zM54.878 251.814c1.303-3.586 5.864-18.084 7.329-31.278 1.756-15.803 1.116-38.915 1.116-38.915s-3.912 15.15-7.333 17.598c-3.419 2.442-9.774 19.057-9.774 19.057s-3.404 24.736-5.024 33.05c4.484.897 8.258-1.744 13.686.488zM19.472 153.766s8.306-2.935 10.752-21.015c2.443-18.083-2.934-33.722-2.934-33.722s.488 24.924-2.443 29.813c-2.934 4.885-5.375 6.352-8.798 12.707-3.423 6.356 1.465 10.261 3.423 12.217z" fill="#E78724"></path><path d="M29.39 36.43l-1.696-1.074c-5 .169 1.696 1.074 1.696 1.074z" fill="#FDC168"></path><path d="M91.94 45.922s-7.816-1.302-11.728-7.166C76.3 32.891 65.225 21.16 47.568 21.03c-17.656-.132-35.124 4.693-35.124 4.693l15.248 9.635c1.613-.053 4.433-.031 9.096.125 19.137.636 22.083 19.564 22.083 19.564l67.442-9.287" fill="#FBA919"></path><path d="M98.459 150.469s-9.124 9.123-23.136 6.189c-14.011-2.931-22.484-9.122-23.135-19.875-.651-10.752 2.935-14.987 2.935-14.987s15.637 4.89 23.135 11.407c7.494 6.515 13.032 16.941 20.2 17.266z" fill="#FFF"></path><path d="M87.417 147.21s-7.913 3.614-16.757.67c-11.577-3.862-12.348-15.902-12.348-15.902s-7.103 20.843 12.81 24.855c15.971 3.217 25.417-6.038 25.417-6.038l-9.122-3.586z" fill="#C9C9C9"></path><path d="M93.04 41.5c-.851-17.874 13.802-32.11 18.88-32.717.28 3.029-.284 14.844 4.792 18.477C118.19 17.61 123.187 6.97 142.92 0c-4.226 11.209-.565 20.598 1.18 24.95 13.474-12.23 22.553-10.21 22.553-10.21s-9.363 16.156-5.7 26.757c-27.05-2.121-67.781 2.874-67.913.004zM35.694 68.728c-6.455-5.355-1.644-10.324-2.154-16.408-.277-3.237-.533-6.291-1.6-7.976C26 34.966 11.989 32.12 11.849 32.09l-6.576-1.288 4.353-5.092c.564-.66 18.44-17.717 46.105-8.785 19.352 6.241 33.678 27.405 34.211 28.26l-9.703 4.563c-.114-.18-11.44-20.074-28.042-25.427-13.42-4.33-25.79-.21-31.087 2.49 5.632 2.248 12.995 6.343 17.432 13.348 2.093 3.309 2.447 7.474 2.788 11.508.45 5.34.87 10.381 4.8 13.646l-10.436 3.415zM18.456 146.893s8.131-10.084 10.54-29.704c.946-7.729-.735-22.972-3.424-28.836.489 14.417-3.176 28.836-3.176 28.836s-2.471 26.771-3.94 29.704z" fill="#463014"></path><path d="M61.334 58.544c-.005-.021-2.61-11.405-9.832-17.152-10.188-8.104-22.627-3.793-22.747-3.755l-1.806-5.58c.602-.195 14.82-4.675 27.923 4.536 13.182 9.263 14.764 17.66 14.901 18.587l-8.44 3.364zM43.995 139.661s-4.266-6.107-3.499-12.823c.382-3.317 1.92-6.722 4.663-7.93 5.1-2.24 7.36 3.54 7.36 3.54s-7.177 1.771-8.524 17.213z" fill="#463014"></path><path d="M90.836 148.97c.178.332.27.519.27.519s-13.307 9.986-26.943-.148c-7.3-5.43-6.61-18.859-4.374-24.554 5.816 1.318 10.748 3.693 14.87 6.467-5.21-4.65-9.77-8.073-9.758-8.152l-5.922-1.676-11.51-3.947c-.147.878-4.345 20.556 7.773 33.964 5.37 5.946 30.55 19.26 42.506-3.506l-6.912 1.032z" fill="#463014"></path><path d="M89.59 150.433c7.491 11.402 26.393 4.886 26.068-7.168 0 0-12.63 6.97-23.789-5.864-6.515-7.492-27.39-28.151-55.7-21.286 19.55 4.3 45.433 22.16 53.42 34.318z" fill="#463014"></path><path d="M33.525 182.613c1.802 1.041 8.158 7.624 8.162 17.468 0 4.937-.491 29.737-2.935 44.888 3.675 2.388 6.235 2.896 9.895 5.33 1.832-17.547 3.146-42.979 2.534-53.246-.7-11.703-6.967-19.557-12.778-22.906-1.82-1.047-3.721-2.076-5.636-3.111-9.953-5.378-20.246-10.942-20.246-20.441 0-7.432 2.89-9.756 5.948-12.22l.33-.267c2.03-1.64 4.326-3.5 5.687-6.553 3.713-8.348 4.32-29.615 0-35.013-2.154-2.69-7.924-11.736-6.265-17.815.632-2.32 2.093-4.04 4.472-5.258 2.517-1.29 5.918-1.943 10.104-1.943 8.222 0 17.342 2.503 22.047 3.993 16.813 5.329 37.101 20.693 42.916 25.275.167.128.265.203.283.215l3.721 2.588-2.327-3.894c-.144-.243-14.883-24.479-41.238-33.365-5.127-1.729-15.2-4.63-25.1-4.63-5.893 0-10.895 1.03-14.854 3.057-4.827 2.469-8.095 6.408-9.453 11.388-3.328 12.207 7.511 25.798 7.88 26.233 1.264 2.256 1.8 18.643-1.12 25.201-.4.906-1.502 1.795-2.895 2.92-.437.353-.925.72-1.442 1.112C7.096 134.728.868 139.425.868 150.252c0 14.814 15.014 22.846 27.08 29.304 1.98 1.065 3.869 2.073 5.577 3.057z" fill="#463014"></path><path d="M35.694 68.728c-6.455-5.355-1.644-10.324-2.154-16.408-.277-3.237-.533-6.291-1.6-7.976C26 34.966 11.989 32.12 11.849 32.09l-6.576-1.288 4.353-5.092c.564-.66 18.44-17.717 46.105-8.785 19.352 6.241 33.678 27.405 34.211 28.26l-9.703 4.563c-.114-.18-11.44-20.074-28.042-25.427-13.42-4.33-25.79-.21-31.087 2.49 5.632 2.248 12.995 6.343 17.432 13.348 2.093 3.309 2.447 7.474 2.788 11.508.45 5.34.87 10.381 4.8 13.646l-10.436 3.415z" fill="#463014"></path><path d="M35.484 69.825l-.417-.346c-4.786-3.972-3.937-7.884-3.115-11.67.374-1.747.768-3.553.608-5.406-.261-3.115-.512-6.054-1.45-7.537-5.655-8.93-19.323-11.79-19.458-11.818L3.44 31.437l5.444-6.365c.1-.12 11.578-11.706 31.017-11.706 5.3 0 10.729.882 16.13 2.627 20.198 6.512 34.606 28.456 34.742 28.673l.583.932-11.478 5.398-.46-.73c-1.236-2.106-12.119-20.054-27.515-25.02-3.781-1.22-7.765-1.837-11.837-1.837-7.376 0-13.357 2.01-16.54 3.36 5.319 2.395 11.77 6.426 15.85 12.863 2.22 3.506 2.58 7.791 2.932 11.932.432 5.148.84 9.99 4.452 12.988l1.363 1.13-12.638 4.143z" fill="#463014"></path><path d="M61.334 58.544c-.005-.021-2.61-11.405-9.832-17.152-10.188-8.104-22.627-3.793-22.747-3.755l-1.806-5.58c.602-.195 14.82-4.675 27.923 4.536 13.182 9.263 14.764 17.66 14.901 18.587l-8.44 3.364z" fill="#463014"></path><path d="M60.633 59.875l-.254-1.12c-.026-.11-2.581-11.104-9.488-16.596-3.937-3.134-8.684-4.726-14.102-4.726-4.229 0-7.372 1.01-7.715 1.129l-.933.31-2.423-7.443.929-.3c.416-.133 4.19-1.31 9.528-1.31 7.042 0 13.7 2.067 19.262 5.973C68.95 45.287 70.6 54.068 70.74 55.037l.119.766-10.226 4.072zM36.79 35.482c5.788 0 11.09 1.78 15.32 5.144 6.133 4.885 9.018 13.508 9.89 16.6l6.648-2.65c-.602-2.347-3.252-9.391-14.336-17.183-5.303-3.727-11.403-5.615-18.136-5.615-3.695 0-6.565.588-7.983.946l1.199 3.706c1.39-.374 4.066-.948 7.398-.948zM96.988 302.574c-2.888 0-5.835-1.048-7.877-2.816-1.564-1.348-6.852-6.205-9.184-12.155-.87-2.225-.675-4.005.588-5.286.87-.878 2.677-1.927 6.344-1.927l2.609-.004c3.109-.004 8.343-.004 12.817-.004h4.29c2.79 0 4.79.604 5.939 1.78 1.477 1.517 1.004 3.447.59 4.463-.718 1.78-3.693 7.571-8.729 12.955-1.803 1.93-4.427 2.994-7.387 2.994zM100.015 151.103l-10.426-.67s2.665 4.698 4.392 10.774c1.95 6.873-1.783 16.918-1.783 16.918s13.902-15.74 7.817-27.022zM87 330.104c-37.109-2.852-50.165-37.917-50.165-45.22l9.691.004-4.845-.004h4.845c.049 3.157 9.91 33.152 41.216 35.56l-.742 9.66z" fill="#463014"></path><path d="M76.572 267.28c-.58-3.351-.64-6.53.067-9.653-2.82-2.12-7.88-2.907-11.677-4.138-3.105-1.965-18.994 2.014-30.52-11.936-14.443-17.468-11.404-27.897-11.404-27.897-3.703 4.114-7.292 2.546-12.936 21.73-5.653 19.188 2.653 32.564 18.133 45.993 7.313 6.343 17.651 8.957 26.544 9.957-2.979-2.99 5.088-3.29 10.648-5.37-.443-4.49.3-8.848 3.647-12.357 2.018-2.116 4.615-3.38 7.31-4.388.15-.348.277-.67.42-1.004a8.578 8.578 0 0 1-.232-.937z" fill="#FFF"></path><path d="M65.353 285.849c-.322-.943-.565-1.903-.803-2.87-.257-1.055-1.537-4.047.04-.631-.405-.875-.67-1.776-.865-2.684-25.07-.032-46.88-17.245-42.666-53.432-3.282-4.357-7.878 8.786-7.878 8.786S.63 271.46 33.044 285.584c10.8 4.71 20.345 8.087 22.597 6.724 4.691.953 8.925-2.317 10.513-4.468-.297-.66-.569-1.322-.801-1.991z" fill="#C9C9C9"></path><path d="M76.12 262.033c.039-3.054.663-6.013 2.14-8.96.103-.203.222-.398.333-.596-9.647-.083-20.757-1.006-30.218-4.793-10.399-4.16-23.407-18.39-25.642-35.11 0 0-19.584 15.112-13.83 47.459 5.402 30.373 30.819 40.275 59.806 41.95.016-.196-3.26-6.962-2.225-11.105-16.46 1.196-34.866-5.163-43.751-19.783-8.135-13.382-5.853-36.228-2.51-39.576 8.155 25.732 37.499 30.963 55.897 30.514z" fill="#463014"></path><path d="M79.157 243.612c-5.216 15.307-15.87 27.696-15.87 27.696s14.656-.667 15.465-3.26c.599-1.912 13.234-31.49 18.084-66.14-4.562 7.495-17.232 40.393-17.679 41.704z" fill="#463014"></path><path d="M162.194 208.32s16.615 25.41 28.809 43.443c1.886 2.79-12.194 2.983-12.194 2.983l-16.615-46.427zM154.28 155.637s5.01 12.498 7.75 19.123c2.98 7.203 14.336 10.786 14.336 10.786s-5.886-6.175-5.886-21.818c0-6.562-8.472-9.172-8.472-9.172l-7.728 1.08z" fill="#E78724"></path><path d="M159.34 162.703s10.263 12.218 29.325 5.375c19.062-6.842 21.014-31.278 21.014-38.12 0-6.842-36.164 6.842-41.053 9.775-4.888 2.933-14.172 14.66-9.286 22.97zM231.328 32.153s-17.593-3.424-29.325 5.863c-11.727 9.285-15.15 16.617-15.15 16.617l19.77 15.67s9.556-4.43 12.488-17.137c2.931-12.706.977-18.57 12.217-21.013z" fill="#E78724"></path><path d="M164.473 127.413c7.574-10.752 20.053-15.442 30.024-16.219 16.995-1.329 25.059 4.679 25.059 4.679s-27.832 1.178-35.856 11.714c-14.935 19.61-36.714 21.203-40.198 16.896 4.028.201 8.462-1.795 13.202-6.28 2.962-2.806 5.366-7.377 7.769-10.79zM211.457 165.431s30.877-10.616 25.012-21.365c-5.863-10.753-1.2-16.612-1.2-16.612s17.247 12.872 12.85 26.555c-2.701 8.398-7.231 14.479-32.107 26.137-11.932 22.163-2.464 62.055-3.028 62.242-.946.314-16.752-7.813-15.673-45.135.328-11.46 1.245-27.106 14.146-31.822zM170.992 51.276c12.944 6.578 30.686 15.739 30.686 15.739l-6.98 3.493c.666 1.079.988 1.723.988 1.723l-7.166 3.258s-17.494 12.672-28.212 20.82c3.57-11.005 14.06-28.292 14.06-28.292s2.978-7.943-3.376-16.741zM127.977 319.42c39.793 0 53.274-20.204 53.274-20.204l-6.216 15.146c-2.35 6.552-27.433 26.942-46.997 26.942" fill="#E78724"></path><path d="M176.894 285.564s-3.666 22.378-18.324 22.378c-12.456 0-16.129-18.903-16.129-22.81l34.453.432zM201.293 251.814c-1.303-3.586-5.864-18.084-7.333-31.278-1.756-15.803-1.112-38.915-1.112-38.915s3.91 15.15 7.328 17.598c3.424 2.442 9.775 19.057 9.775 19.057s3.403 24.736 5.023 33.05c-4.482.897-8.252-1.744-13.681.488zM236.702 153.766s-8.31-2.935-10.752-21.015c-2.443-18.083 2.933-33.722 2.933-33.722s-.491 24.924 2.443 29.813c2.934 4.887 5.376 6.352 8.798 12.707 3.418 6.354-1.469 10.261-3.422 12.217z" fill="#E78724"></path><path d="M226.78 36.43l1.699-1.074c5.001.169-1.699 1.074-1.699 1.074z" fill="#FDC168"></path><path d="M164.227 45.922s7.821-1.302 11.729-7.166c3.91-5.865 14.99-17.596 32.648-17.727 17.656-.132 35.124 4.693 35.124 4.693l-15.249 9.635c-1.613-.053-4.433-.031-9.1.125-19.134.636-22.08 19.564-22.08 19.564l-67.44-9.287" fill="#FBA919"></path><path d="M157.712 150.469s9.124 9.123 23.133 6.189c14.012-2.931 22.484-9.122 23.136-19.875.65-10.752-2.932-14.987-2.932-14.987s-15.642 4.89-23.135 11.407c-7.494 6.517-13.032 16.941-20.202 17.266z" fill="#FFF"></path><path d="M168.751 147.21s7.916 3.614 16.757.67c11.58-3.862 12.351-15.902 12.351-15.902s7.099 20.843-12.814 24.855c-15.968 3.217-25.416-6.038-25.416-6.038l9.122-3.586z" fill="#C9C9C9"></path><path d="M220.476 68.728c6.455-5.355 1.648-10.324 2.158-16.408.272-3.237.528-6.291 1.596-7.976 5.94-9.378 19.951-12.224 20.095-12.254l6.578-1.288-4.355-5.092c-.564-.66-18.44-17.717-46.11-8.785-19.348 6.241-33.673 27.405-34.206 28.26l9.7 4.563c.117-.18 11.444-20.074 28.046-25.427 13.42-4.33 25.788-.21 31.083 2.49-5.629 2.248-12.995 6.343-17.432 13.348-2.093 3.309-2.444 7.474-2.784 11.508-.45 5.34-.874 10.381-4.805 13.646l10.436 3.415zM237.711 146.893s-8.127-10.084-10.536-29.704c-.946-7.729.732-22.972 3.42-28.836-.489 14.417 3.18 28.836 3.18 28.836s2.471 26.771 3.936 29.704z" fill="#463014"></path><path d="M194.838 58.544c.004-.021 2.609-11.405 9.832-17.152 10.187-8.104 22.627-3.793 22.743-3.755l1.811-5.58c-.604-.195-14.82-4.675-27.927 4.536-13.182 9.263-14.76 17.66-14.901 18.587l8.442 3.364zM212.176 139.661s4.266-6.107 3.495-12.823c-.378-3.317-1.915-6.722-4.66-7.93-5.099-2.24-7.36 3.54-7.36 3.54s7.178 1.771 8.525 17.213z" fill="#463014"></path><path d="M165.336 148.97c-.178.332-.27.519-.27.519s13.301 9.986 26.938-.148c7.304-5.43 6.614-18.859 4.374-24.554-5.813 1.318-10.744 3.693-14.869 6.467 5.211-4.65 9.772-8.073 9.756-8.152l5.926-1.676 11.508-3.945c.148.878 4.345 20.556-7.777 33.965-5.37 5.945-30.55 19.259-42.502-3.507l6.916 1.03z" fill="#463014"></path><path d="M166.578 150.433c-7.491 11.402-26.388 4.886-26.062-7.168 0 0 12.626 6.97 23.785-5.864 6.514-7.492 27.394-28.151 55.702-21.286-19.549 4.3-45.433 22.16-53.425 34.318z" fill="#463014"></path><path d="M222.65 182.613c-1.804 1.041-8.163 7.624-8.163 17.468-.004 4.937.488 29.737 2.935 44.888-3.676 2.388-6.236 2.896-9.896 5.33-1.832-17.547-3.15-42.979-2.533-53.246.699-11.703 6.963-19.557 12.773-22.906 1.82-1.047 3.722-2.076 5.641-3.111 9.953-5.378 20.246-10.942 20.246-20.441 0-7.432-2.892-9.756-5.95-12.22l-.326-.267c-2.03-1.64-4.331-3.5-5.688-6.553-3.714-8.348-4.323-29.615-.004-35.013 2.154-2.69 7.928-11.736 6.269-17.815-.636-2.32-2.098-4.04-4.476-5.258-2.518-1.29-5.913-1.943-10.104-1.943-8.217 0-17.342 2.503-22.043 3.993-16.813 5.329-37.1 20.693-42.92 25.275-.166.128-.262.203-.28.215l-3.724 2.588 2.327-3.894c.148-.243 14.884-24.479 41.238-33.365 5.128-1.729 15.2-4.63 25.1-4.63 5.894 0 10.89 1.03 14.854 3.057 4.828 2.469 8.094 6.408 9.454 11.388 3.328 12.207-7.512 25.798-7.882 26.233-1.263 2.256-1.798 18.643 1.117 25.201.402.906 1.503 1.795 2.9 2.92.436.353.92.72 1.441 1.112 4.12 3.109 10.345 7.806 10.345 18.633 0 14.814-15.014 22.846-27.076 29.304-1.981 1.065-3.873 2.073-5.576 3.057z" fill="#463014"></path><path d="M204.739 66.985c-2.388-4.045-8.496-11.855-22.571-18.718-15.709-7.656-33.889-11.542-54.044-11.551v-.005h-.078v.002c-20.158.01-38.342 3.897-54.046 11.552-14.076 6.864-20.18 14.673-22.57 18.718l-1.026 1.357 12.054 2.683.382-.483.202-.442c.186-.797 1.802-5.098 15.24-11.651 14.367-7.007 31.124-10.56 49.8-10.566 18.68.006 35.43 3.559 49.795 10.566 13.44 6.553 15.061 10.854 15.245 11.65l.201.443.378.483 12.057-2.683-1.02-1.355z" fill="#463014"></path><path d="M220.476 68.728c6.455-5.355 1.648-10.324 2.158-16.408.272-3.237.528-6.291 1.596-7.976 5.94-9.378 19.951-12.224 20.095-12.254l6.578-1.288-4.355-5.092c-.564-.66-18.44-17.717-46.11-8.785-19.348 6.241-33.673 27.405-34.206 28.26l9.7 4.563c.117-.18 11.444-20.074 28.046-25.427 13.42-4.33 25.788-.21 31.083 2.49-5.629 2.248-12.995 6.343-17.432 13.348-2.093 3.309-2.444 7.474-2.784 11.508-.45 5.34-.874 10.381-4.805 13.646l10.436 3.415z" fill="#463014"></path><path d="M208.054 65.687l1.358-1.131c3.615-2.998 4.02-7.84 4.457-12.988.35-4.142.711-8.428 2.93-11.932 4.078-6.435 10.533-10.467 15.85-12.865-3.183-1.348-9.165-3.358-16.542-3.358-4.074 0-8.05.616-11.833 1.837-15.4 4.966-26.282 22.914-27.514 25.02l-.462.73-11.478-5.398.584-.932c.135-.217 14.54-22.16 34.738-28.673 5.401-1.745 10.83-2.626 16.134-2.626 19.439 0 30.918 11.589 31.016 11.706l5.445 6.365-8.215 1.61c-.136.028-13.803 2.887-19.462 11.819-.938 1.484-1.184 4.42-1.45 7.537-.155 1.854.234 3.66.613 5.406.821 3.786 1.67 7.702-3.119 11.67l-.416.346-12.634-4.143z" fill="#463014"></path><path d="M194.838 58.544c.004-.021 2.609-11.405 9.832-17.152 10.187-8.104 22.627-3.793 22.743-3.755l1.811-5.58c-.604-.195-14.82-4.675-27.927 4.536-13.182 9.263-14.76 17.66-14.901 18.587l8.442 3.364z" fill="#463014"></path><path d="M185.318 55.803l.114-.766c.143-.969 1.794-9.748 15.304-19.245 5.558-3.906 12.218-5.972 19.26-5.972 5.341 0 9.115 1.174 9.533 1.309l.927.3-2.421 7.443-.935-.31c-.35-.118-3.491-1.129-7.718-1.129-5.417 0-10.161 1.59-14.098 4.726-6.908 5.494-9.464 16.488-9.488 16.596l-.254 1.118-10.224-4.07zM226.78 36.43l1.203-3.706c-1.419-.36-4.292-.946-7.987-.946-6.732 0-12.834 1.89-18.134 5.615-11.088 7.794-13.738 14.836-14.339 17.183l6.653 2.65c.87-3.094 3.752-11.717 9.888-16.6 4.234-3.365 9.53-5.144 15.317-5.144 3.328 0 6.009.574 7.4.948zM151.8 299.58c-5.035-5.383-8.014-11.176-8.734-12.955-.412-1.014-.88-2.946.596-4.464 1.151-1.175 3.146-1.779 5.935-1.779h4.293c4.474 0 9.705 0 12.816.004l2.61.004c3.664 0 5.47 1.048 6.339 1.927 1.264 1.279 1.461 3.058.59 5.286-2.33 5.951-7.62 10.808-9.183 12.155-2.048 1.768-4.988 2.816-7.876 2.816-2.96 0-5.583-1.064-7.386-2.994zM156.158 151.103l10.42-.67s-2.661 4.698-4.388 10.774c-1.95 6.873 1.783 16.918 1.783 16.918s-13.903-15.74-7.815-27.022z" fill="#463014"></path><path d="M128.087 113.88c-6.645 0-15.309-.182-21.81-4.854 0 0 8.512 14.921 21.799 14.921l.011-1.888.011 1.888c13.288 0 21.798-14.92 21.798-14.92-6.5 4.67-15.17 4.853-21.809 4.853z" fill="#E78724"></path><path d="M146.383 113.808c-6.665 4.034-12.618 5.432-18.296 5.556-5.68-.124-11.63-1.522-18.296-5.556 0 0 9.707 11.845 18.247 11.936v.007c.015 0 .03-.004.048-.004.015 0 .03.004.048.004v-.007c8.538-.091 18.249-11.936 18.249-11.936zM169.172 330.104l-.743-9.662c31.298-2.407 41.16-32.402 41.211-35.56h9.692c.004 7.303-13.056 42.37-50.16 45.222z" fill="#463014"></path><path d="M179.598 267.28c.583-3.351.64-6.53-.067-9.653 2.824-2.12 7.88-2.907 11.677-4.138 3.105-1.965 18.998 2.014 30.525-11.936 14.442-17.468 11.399-27.897 11.399-27.897 3.706 4.114 7.292 2.546 12.94 21.73 5.653 19.188-2.657 32.564-18.137 45.993-7.312 6.343-17.651 8.957-26.544 9.957 2.979-2.99-5.088-3.29-10.645-5.37.444-4.49-.302-8.848-3.649-12.357-2.014-2.116-4.615-3.38-7.307-4.388-.152-.348-.282-.67-.421-1.004.089-.305.173-.613.23-.937z" fill="#FFF"></path><path d="M190.814 285.849c.326-.943.564-1.903.803-2.87.261-1.055 1.541-4.047-.039-.631.406-.875.67-1.776.866-2.684 25.07-.032 46.88-17.245 42.662-53.432 3.282-4.357 7.881 8.786 7.881 8.786s12.551 36.442-19.863 50.566c-10.8 4.71-20.343 8.087-22.596 6.724-4.695.953-8.93-2.317-10.514-4.468.296-.66.574-1.322.8-1.991z" fill="#C9C9C9"></path><path d="M180.047 262.033c-.035-3.054-.663-6.013-2.135-8.96-.105-.203-.224-.398-.334-.596 9.646-.083 20.757-1.006 30.218-4.793 10.398-4.16 23.406-18.39 25.642-35.11 0 0 19.584 15.112 13.83 47.459-5.406 30.373-30.82 40.275-59.806 41.95-.016-.196 3.261-6.962 2.225-11.105 16.455 1.196 34.862-5.163 43.752-19.783 8.13-13.382 5.85-36.228 2.506-39.576-8.152 25.732-37.499 30.963-55.898 30.514z" fill="#463014"></path><path d="M191.752 269.652c-3.463-3.744-9.83-8.206-24.511-8.206l-39.105-.024h-.096c-11.27.008-39.11.024-39.11.024-14.678 0-21.045 4.463-24.51 8.206-5.047 5.449-5.839 13.028-2.347 22.502 9.278 25.217 22.317 50.837 65.965 50.873v.004c.016 0 .03-.004.048-.004.015 0 .03.004.048.004v-.004c43.644-.038 56.683-25.656 65.964-50.873 3.492-9.474 2.698-17.053-2.346-22.502zm-6.795 20.734c-4.42 12.663-16.301 43.313-56.872 43.366-40.576-.053-52.452-30.702-56.873-43.366-2.446-7.026-2.26-12.225.572-15.454 1.935-2.208 6.379-4.843 16.507-4.843l10.581-.004c7.806-.007 17.607-.015 29.214-.02 11.603.005 21.409.013 29.213.02l10.577.004c10.131 0 14.574 2.634 16.51 4.843 2.829 3.232 3.017 8.428.57 15.454z" fill="#463014"></path><path d="M177.012 243.612c5.216 15.307 15.87 27.696 15.87 27.696s-14.656-.667-15.466-3.26c-.595-1.912-13.23-31.49-18.08-66.14 4.558 7.495 17.228 40.393 17.676 41.704z" fill="#463014"></path></svg><svg width="256" height="566" viewBox="0 0 256 566" preserveAspectRatio="xMidYMid" id="gulp" x="1411" y="1675"><path d="M197.28 548.749l5.427-90.43 14.985-25.58s-34.106 13.952-91.205 13.952c-57.1 0-90.689-13.694-90.689-13.694l16.794 27.904 5.941 87.848c0 9.418 31.059 17.052 69.374 17.052 38.313 0 69.373-7.634 69.373-17.052M180.161 126.454l11.391-45.025 63.081-66.376L238.007.892l-66.784 70.707-13.226 53.793a886.14 886.14 0 0 0-29.873-.497c-70.336 0-127.355 8.016-127.355 17.902 0 9.887 57.019 17.902 127.355 17.902 70.335 0 127.353-8.015 127.353-17.902 0-7.28-30.924-13.546-75.316-16.343" fill="#D34A47"></path><path d="M173.535 151.669s-2.467.553-9.724.584c-7.259.03-12.413-.047-14.466-1.917-.552-.502-.854-1.499-.851-2.174.006-1.285.918-2.042 2.08-2.516l1.099 1.724c-.478.165-.751.36-.752.568-.004.976 7.422 1.644 13.102 1.572 5.681-.07 12.545-.538 12.551-1.5 0-.291-.519-.565-1.422-.781l1.094-1.712c1.472.457 2.757 1.34 2.754 2.868-.014 2.598-3.32 2.993-5.465 3.284" fill="#FFF"></path><path d="M254.509 15.184c1.586-1.832-.821-6.518-5.376-10.465C244.576.774 239.596-.94 238.007.892c-1.587 1.832.821 6.518 5.378 10.463 4.555 3.946 9.537 5.662 11.124 3.829M194.246 327.865c-1.495-14.384 31.462-35.216 23.004-35.883-18.208 1.041-27.27 21.338-36.431 42.596-3.357 7.791-14.844 41.013-22.378 36.923-7.532-4.088 9.765-31.407 14.613-47.631-5.594 4.102-26.109 20.041-31.396 5.114-8.5 7.219-26.663 11.13-24.614-7.833-4.522 8.01-14.671 19.193-26.853 14.546-15.998-6.101 9.27-57.062 15.553-54.491 6.284 2.57-1.268 14.179-3.246 18.687-4.35 9.921-9.375 22.393-6.018 24.946 5.751 4.374 21.401-16.547 21.749-17.007 2.927-3.867 11.266-29.166 17.987-26.261 6.721 2.905-16.764 36.308-7.983 42.937 1.771 1.338 9.017-.825 13.425-5.594 2.852-3.085 1.871-9.918 11.378-32.59 9.507-22.671 17.98-50.905 24.5-48.754 6.52 2.15 1.146 16.641-1.193 22.043-10.976 25.354-29.956 67.241-21.005 64.07 8.951-3.17 13.612-3.356 22.377-13.613 8.765-10.257 8.361-27.152 14.203-26.793 5.844.36 4.863 5.777 3.446 9.902 5.75-6.58 27.256-20.438 32.448-6.713 6.15 16.249-30.769 39.72-21.564 38.523 8.975-1.167 23.515-10.376 29.723-18.749l17.088-153.626s-17.195 14.23-126.589 14.23c-109.395 0-124.811-13.934-124.811-13.934l14.548 140.224c7.722-21.947 26.059-66.339 54.963-64.849 13.148.678 30.7 25.995 15.665 26.853-6.364.362-7.01-12.637-14.546-14.546-5.438-1.378-13.009 3.043-17.902 7.833-9.758 9.55-30.745 47.229-27.972 66.014 3.533 23.949 33.048-8.322 38.042-17.903 3.517-6.749 5.893-26.745 13.585-24.647 7.693 2.098-.671 22.734-6.247 40.979-6.264 20.487-9.557 42.098-17.408 39.612-7.852-2.484 4.938-28.932 4.475-33.566-7.38 6.809-20.976 24.047-38.37 15.515l9.035 87.078s24.013 18.973 96.35 18.973c72.337 0 97.239-18.677 97.239-18.677l11.219-100.857c-9.179 8.938-38.229 24.81-40.089 6.919" fill="#D34A47"></path></svg><svg viewBox="0 0 512 512" width="512" height="512" id="html5" x="1667" y="2241"><title>HTML5 Logo</title><path fill="#E44D26" d="M107.644 470.877L74.633 100.62h362.734l-33.046 370.199L255.778 512z"></path><path fill="#F16529" d="M256 480.523l120.03-33.277 28.24-316.352H256z"></path><path fill="#EBEBEB" d="M256 268.217h-60.09l-4.15-46.501H256v-45.411H142.132l1.087 12.183 11.161 125.139H256zM256 386.153l-.199.053-50.574-13.656-3.233-36.217h-45.585l6.362 71.301 93.02 25.823.209-.058z"></path><path d="M108.382 0h23.077v22.8h21.11V0h23.078v69.044H152.57v-23.12h-21.11v23.12h-23.077V0zM205.994 22.896h-20.316V0h63.72v22.896h-20.325v46.148h-23.078V22.896zM259.511 0h24.063l14.802 24.26L313.163 0h24.072v69.044h-22.982V34.822l-15.877 24.549h-.397l-15.888-24.549v34.222h-22.58V0zM348.72 0h23.084v46.222h32.453v22.822H348.72V0z"></path><path fill="#FFF" d="M255.843 268.217v45.41h55.918l-5.271 58.894-50.647 13.67v47.244l93.094-25.801.683-7.672 10.671-119.551 1.108-12.194h-12.237zM255.843 176.305V221.716h109.688l.911-10.207 2.069-23.021 1.086-12.183z"></path></svg><svg width="256" height="255" viewBox="0 0 256 255" preserveAspectRatio="xMidYMid" id="jasmine" x="2179" y="2753"><g transform="matrix(1 0 0 -1 0 255)" fill="#8A4182"><path d="M118.267 149.666h19.795l4.918 6.733v52.727h-29.627v-52.733l4.914-6.727M105.509 126.149l6.115 18.717-4.919 6.73-50.434 16.294-9.154-28.016 50.44-16.296 7.952 2.57M124.06 106.813l-16.012 11.57-7.96-2.572-31.168-42.66 23.968-17.313 31.172 42.66v8.315M148.285 118.386l-16.016-11.57.004-8.32 31.169-42.658 23.969 17.314-31.175 42.663-7.95 2.57M144.702 144.87l6.118-18.72 7.958-2.569 50.435 16.293-9.157 28.018-50.436-16.297-4.918-6.725"></path><path d="M128.17 254.894C57.71 254.894.384 197.9.384 127.848.383 57.77 57.71.761 128.171.761c70.454 0 127.774 57.009 127.774 127.087 0 70.053-57.32 127.046-127.774 127.046zm0-25.725c56.27 0 101.9-45.357 101.9-101.32 0-55.983-45.63-101.36-101.9-101.36-56.287 0-101.912 45.377-101.912 101.36 0 55.963 45.625 101.32 101.913 101.32z"></path><path d="M205.565 99.609l-38.338 12.387 2.535 7.765 38.338-12.387-2.535-7.765M156.67 160.81l-6.645 4.798 23.693 32.429 6.644-4.799-23.693-32.428M100.072 161.105l-23.69 32.43 6.644 4.798 23.69-32.428-6.644-4.8M50.608 100.093l-2.536 7.765 38.334 12.382 2.537-7.765-38.335-12.382M123.807 46.841h8.211v40.085h-8.21V46.84z"></path></g></svg><svg width="256" height="256" viewBox="0 0 256 256" preserveAspectRatio="xMidYMid" id="javascript" x="2435" y="3008"><path d="M0 0h256v256H0V0z" fill="#F7DF1E"></path><path d="M67.312 213.932l19.59-11.856c3.78 6.701 7.218 12.371 15.465 12.371 7.905 0 12.89-3.092 12.89-15.12v-81.798h24.057v82.138c0 24.917-14.606 36.259-35.916 36.259-19.245 0-30.416-9.967-36.087-21.996M152.381 211.354l19.588-11.341c5.157 8.421 11.859 14.607 23.715 14.607 9.969 0 16.325-4.984 16.325-11.858 0-8.248-6.53-11.17-17.528-15.98l-6.013-2.58c-17.357-7.387-28.87-16.667-28.87-36.257 0-18.044 13.747-31.792 35.228-31.792 15.294 0 26.292 5.328 34.196 19.247L210.29 147.43c-4.125-7.389-8.591-10.31-15.465-10.31-7.046 0-11.514 4.468-11.514 10.31 0 7.217 4.468 10.14 14.778 14.608l6.014 2.577c20.45 8.765 31.963 17.7 31.963 37.804 0 21.654-17.012 33.51-39.867 33.51-22.339 0-36.774-10.654-43.819-24.574"></path></svg><svg width="512" height="124" viewBox="0 0 512 124" preserveAspectRatio="xMidYMid" id="knockout" x="2691" y="3264"><path d="M299.665 6.016c1.563-2.76 3.953-5.12 7.074-5.996 1.409-.026 2.818-.022 4.23-.013 1.916.885 3.597 2.271 4.636 4.124.823 1.858.379 3.804-.044 5.692-.546 1.14-.96 2.342-1.356 3.54a25.15 25.15 0 0 0-.898 2.205 30.565 30.565 0 0 0-.88 2.2 33.71 33.71 0 0 0-.88 2.202 39.71 39.71 0 0 0-.885 2.205 43.244 43.244 0 0 0-.88 2.201 43.244 43.244 0 0 0-.881 2.201 39.463 39.463 0 0 0-.876 2.201 36.383 36.383 0 0 0-.88 2.201 36.382 36.382 0 0 0-.881 2.201 36.383 36.383 0 0 0-.88 2.201 36.383 36.383 0 0 0-.88 2.201 36.383 36.383 0 0 0-.881 2.201 40.928 40.928 0 0 0-.88 2.201 36.508 36.508 0 0 0-.881 2.205 32.59 32.59 0 0 0-.876 2.197 36.435 36.435 0 0 0-.885 2.201 36.456 36.456 0 0 0-.876 2.205 36.666 36.666 0 0 0-1.373 3.592c5.55-4.168 11.005-8.482 16.723-12.422.585-.312 1.18-.62 1.77-.938 1.945-.796 4.067-.651 6.118-.51 1.453.832 2.83 1.827 3.68 3.306 1.074 2.703.599 5.89-1.18 8.183-1.113 1.391-2.46 2.562-3.798 3.728-.617.414-1.215.854-1.792 1.321-3.033 2.082-5.934 4.354-8.87 6.568.493.73.982 1.47 1.47 2.205.29.454.581.903.885 1.352.67 1.21 1.422 2.368 2.201 3.512.933 1.678 2.02 3.258 3.09 4.851.41.735.832 1.466 1.29 2.18.304.444.608.893.929 1.338.858 1.584 1.765 3.165 2.267 4.912.321 1.29-.229 2.558-.467 3.808-1.33 2.104-3.077 4.032-5.41 5.027-1.606.524-3.222.599-4.815-.013-.978-.687-2.003-1.37-2.637-2.408-2.223-3.354-4.446-6.713-6.678-10.063-.295-.445-.585-.885-.88-1.325-.295-.445-.586-.89-.88-1.325-.296-.445-.586-.89-.881-1.325-.295-.445-.594-.894-.89-1.33-1.87-3.235-4.155-6.202-6.057-9.41.04.14.115.426.15.567-.392.717-.73 1.461-1.021 2.223-.308.73-.599 1.466-.859 2.21-.32.722-.62 1.457-.884 2.2a32.703 32.703 0 0 0-.876 2.202 28.615 28.615 0 0 0-.876 2.2c-1.572 3.707-2.826 7.559-4.838 11.063-1.655 1.836-3.324 3.9-5.837 4.534-1.114.145-2.21.748-3.346.431-.898-.224-1.804-.374-2.716-.515-1.325-1.149-2.905-2.245-3.424-4.014-1.1-2.479.378-5.054 1.06-7.43.322-.727.63-1.458.907-2.202.304-.73.603-1.461.872-2.2.308-.727.612-1.462.885-2.202.303-.726.607-1.461.88-2.2.308-.732.603-1.462.88-2.206.313-.722.604-1.457.876-2.197a44.94 44.94 0 0 0 .88-2.2c.309-.732.608-1.462.881-2.206.313-.722.608-1.457.88-2.201.313-.722.608-1.457.881-2.201.313-.722.608-1.457.88-2.197.313-.726.608-1.461.88-2.205.309-.726.608-1.457.881-2.201.313-.726.608-1.457.88-2.201.313-.726.608-1.457.881-2.201.313-.726.608-1.457.88-2.201.313-.726.608-1.462.876-2.201.317-.726.612-1.462.88-2.201.313-.726.608-1.462.881-2.205.313-.722.612-1.458.88-2.201.313-.722.608-1.458.881-2.201.313-.722.607-1.457.88-2.201.313-.722.608-1.457.88-2.201.313-.722.608-1.457.877-2.201a130.954 130.954 0 0 0 1.76-4.402c.318-.727.612-1.457.885-2.201.313-.727.608-1.457.88-2.201.313-.727.608-1.457.877-2.201.312-.727.612-1.457.88-2.201.313-.727.612-1.457.88-2.201.313-.722.612-1.457.877-2.201.669-1.594 1.311-3.2 1.914-4.82zM26.708 11.104C31.783 9.357 37.21 9.48 42.498 9.74c.862.171 1.716.396 2.597.48 2.918.88 5.753 2.016 8.39 3.56 3.314 2.422 6.299 5.367 8.328 8.967.493 1.317 1.026 2.62 1.528 3.931.717 3.025.62 6.137.532 9.223-.29 3.437-1.329 6.748-2.32 10.036a29.748 29.748 0 0 0-1.338 3.535c-.695 1.378-1.175 2.857-1.94 4.2 1.36-1.788 3.08-3.254 4.582-4.918 2.451-2.953 5.313-5.529 7.914-8.35 3.06-3.68 6.749-6.788 9.782-10.495 5.502-5.383 10.437-11.308 16.098-16.538.91-.58 1.813-1.18 2.711-1.787 2.258-1.272 4.856-1.224 7.37-1.004 1.967.973 3.908 2.404 4.696 4.534.73 1.66.405 3.509.405 5.26-.651 1.185-1.233 2.409-1.884 3.593-.313.444-.616.898-.911 1.356-1.831 1.848-3.368 3.966-5.27 5.749-2.16 2.249-4.45 4.393-6.43 6.81-2.98 3.173-6.212 6.123-9.007 9.464-2.236 2.315-4.525 4.573-6.735 6.915-2.364 2.857-5.12 5.357-7.664 8.051.273.595.546 1.189.823 1.783.52 1.642 1.043 3.284 1.748 4.86.55 1.624 1.052 3.27 1.76 4.842.55 1.625 1.053 3.27 1.761 4.842.55 1.625 1.052 3.271 1.761 4.838.55 1.629 1.052 3.275 1.76 4.842.547 1.625 1.062 3.267 1.757 4.838.392 1.206.797 2.417 1.365 3.561.048.203.14.603.19.801.519 1.325.937 2.69 1.491 4.006.243.595.52 1.176.81 1.752 1.418 2.18 4.107 3.214 6.625 3.253 130.158-.004 260.316.005 390.478-.004 1.175-.013 2.293.431 3.464.528.92.467 1.845.929 2.778 1.374.748.836 1.32 1.796 1.87 2.773a53.677 53.677 0 0 1-.021 5.12c-.198.462-.383.924-.546 1.4-1.074 1.892-2.672 3.415-4.52 4.546-1.863.564-3.707 1.378-5.67 1.435-131.488.005-262.975 0-394.462.005-1.593.048-3.108-.568-4.706-.506-1.628-.617-3.372-1.022-4.82-2.034-1.875-1.105-2.94-3.064-4.186-4.767-.528-1.053-1.061-2.096-1.572-3.152-.343-.885-.69-1.77-1.109-2.624a51.477 51.477 0 0 0-.185-.792c-.95-2.514-1.827-5.062-2.848-7.554-.559-1.633-1.048-3.297-1.805-4.855l-.193-.793c-.52-1.338-.93-2.716-1.523-4.019-.392-1.197-.802-2.39-1.321-3.535-.55-1.624-1.057-3.27-1.765-4.837-.55-1.625-1.061-3.267-1.757-4.834-.396-1.206-.8-2.412-1.364-3.552l-.194-.797c-.52-1.338-.929-2.716-1.523-4.019-.392-1.197-.801-2.39-1.325-3.535-.62-1.915-1.294-3.812-2.087-5.66a77.092 77.092 0 0 1-.317 1.703c-.37.717-.69 1.457-.968 2.214a43.132 43.132 0 0 0-.872 2.201 43.151 43.151 0 0 0-.884 2.197 44.94 44.94 0 0 0-.88 2.2 47.807 47.807 0 0 0-.886 2.202 35.42 35.42 0 0 0-.871 2.21c-.815 1.725-1.514 3.5-2.188 5.282a33.76 33.76 0 0 0-.885 2.2 35.31 35.31 0 0 0-.885 2.202 35.264 35.264 0 0 0-.88 2.2 35.188 35.188 0 0 0-.885 2.197 37.449 37.449 0 0 0-.88 2.197c-.317.73-.612 1.461-.88 2.21-.375.854-.71 1.721-1.053 2.588-.286.594-.572 1.189-.854 1.783-1.39 2.254-2.962 4.455-5.242 5.885-.22.12-.652.361-.868.485-1.712.457-3.433 1.223-5.242.937-.749-.158-1.48-.365-2.232-.488-1.316-.744-2.553-1.63-3.588-2.738a51.462 51.462 0 0 0-1.003-1.884c-.414-2.985.18-5.96 1.44-8.677.316-.722.615-1.452.888-2.196.317-.727.612-1.457.88-2.201.318-.727.613-1.457.881-2.201.317-.722.616-1.453.885-2.197a40.79 40.79 0 0 0 .88-2.196c.313-.731.612-1.462.885-2.201.308-.731.608-1.462.88-2.201.313-.727.608-1.462.885-2.201.308-.727.608-1.462.872-2.21 1.131-2.448 2.082-4.974 3.068-7.484.317-.726.62-1.457.89-2.2.312-.727.611-1.458.88-2.202.317-.721.612-1.457.88-2.196.317-.726.616-1.457.885-2.201.312-.726.612-1.457.88-2.201.313-.726.612-1.457.885-2.201.308-.726.608-1.457.88-2.197.313-.726.608-1.461.88-2.205 1.29-3.029 2.404-6.128 3.245-9.315.625-2.31.973-4.877.088-7.162-1.378-2.386-3.689-4.168-6.383-4.793-2.817-.397-5.762-.18-8.39.99-.594.273-1.184.559-1.752.88-4.543 2.857-8.438 7.299-9.574 12.665-.4 1.263-.238 2.615-.45 3.913.12 1.765.225 3.548 1.123 5.129a12.281 12.281 0 0 0 5.3 4.82c.911.396 1.823.805 2.782 1.083a13.673 13.673 0 0 1 3.623 2.711c.101.238.3.718.396.955.185.467.375.93.577 1.391.638 4.178-2.219 8.087-5.93 9.72-3.385.982-7.091.806-10.49-.035a26.729 26.729 0 0 0-2.2-.925 38.61 38.61 0 0 0-2.254-1.32c-3.465-2.346-5.97-5.758-8.065-9.315-.422-1.056-.818-2.122-1.303-3.147C.31 52.43-.219 48.204.085 43.969c.585-3.292 1.038-6.655 2.275-9.807.476-1.021.88-2.074 1.303-3.117.62-1.017 1.246-2.034 1.818-3.077.599-.876 1.189-1.752 1.77-2.641 2.905-3.72 6.299-7.06 10.195-9.746.449-.3.902-.603 1.347-.916 1.73-.942 3.495-1.813 5.269-2.667.89-.273 1.77-.577 2.646-.894zM474.842 23.1c2.214-.876 4.613-.797 6.95-.639 1.418.674 2.633 1.673 3.677 2.84.1.233.303.708.4.946.18.471.379.946.59 1.413.128 1.426-.172 2.813-.533 4.186a53.083 53.083 0 0 0-.902 2.677c-.722 1.422-1.422 2.861-1.963 4.362-.251.431-.498.863-.744 1.294 1.83.326 3.702.23 5.555.352.462.194.938.375 1.422.542 1.206.775 2.531 1.633 2.918 3.12.824 1.85.326 3.905-.114 5.785-1.092 2.518-3.482 3.935-5.899 4.966-3.204.783-6.506.47-9.772.523l-.163 1.004c-.37.726-.691 1.475-.973 2.24a40.804 40.804 0 0 0-.871 2.202 37.574 37.574 0 0 0-.88 2.2 37.575 37.575 0 0 0-.881 2.202 37.576 37.576 0 0 0-.88 2.2 36.508 36.508 0 0 0-.881 2.206 32.59 32.59 0 0 0-.876 2.197 37.569 37.569 0 0 0-.89 2.196c-.325.757-.629 1.523-.866 2.311-.146.15-.44.44-.586.59 3.834.163 7.717-.348 11.485.541.898.454 1.8.907 2.703 1.37.493.779.999 1.549 1.5 2.324-.008 1.77.322 3.64-.409 5.313-.352.946-.964 1.76-1.5 2.601-1.154.846-2.312 1.69-3.601 2.316-3.716.995-7.598.493-11.393.616-3.825-.14-7.734.41-11.471-.616-2.32-1.008-4.345-2.641-5.437-4.97-.229-1.84-.942-3.724-.215-5.55.37-2.06 1.245-3.945 2.05-5.855.309-.727.604-1.457.872-2.201.313-.727.612-1.457.885-2.201.308-.727.603-1.457.876-2.201.313-.727.608-1.457.88-2.201.313-.727.608-1.457.877-2.201 1.219-2.857 2.236-5.802 3.543-8.624-2.94.19-6.515-.436-7.99-3.323-.202-1.145-.713-2.267-.501-3.447.171-.903.392-1.796.484-2.707 1.087-2.333 3.108-3.98 5.44-4.975 2.545-.783 5.213-.554 7.836-.677 1.48-.582 1.462-2.699 2.197-3.98.312-.722.607-1.457.88-2.2.313-.727.612-1.458.885-2.202.313-.726.612-1.466.867-2.218.432-.89.872-1.774 1.312-2.66 1.241-1.452 2.597-2.812 4.107-3.987zm-340.3 16.555c2.14-.21 4.297-.07 6.44-.008 1.859.651 3.716 1.303 5.424 2.297 1.765 1.568 3.434 3.271 4.543 5.384.515 2.02 1.162 4.072.955 6.185-.295 2.399-1.091 4.692-1.884 6.964-2.39 5.45-4.525 11.014-6.682 16.556 3.957.118 7.963-.348 11.854.515 1.436.62 2.668 1.584 3.68 2.773.916 2.263.529 4.723-.105 7.003-1.145 1.436-2.456 2.734-4.037 3.68-.92.278-1.83.59-2.716.965a368.7 368.7 0 0 1-20.931.008c-1.475-.783-3.05-1.448-4.292-2.588-.902-.986-1.492-2.201-2.122-3.359-.066-.964-.167-1.923-.414-2.852.282-.916.366-1.871.414-2.822.066-.101.203-.308.273-.41.203-.739.445-1.465.665-2.2.651-1.444 1.228-2.923 1.791-4.402.317-.727.617-1.457.885-2.201.317-.727.612-1.457.88-2.201.318-.722.617-1.453.885-2.192.313-.731.608-1.466.885-2.206.313-.726.608-1.457.88-2.196.925-1.818 1.387-3.804 1.176-5.846-.7-.74-1.506-1.356-2.373-1.88a48.911 48.911 0 0 1-1.818-.163c-3.627-.303-6.413 2.417-8.35 5.15-.51.837-.982 1.7-1.444 2.567-3.456 7.831-6.423 15.87-9.658 23.797a37.09 37.09 0 0 0-1.607 2.738c-1.474 1.748-3.218 3.27-5.379 4.094-.788.097-1.563.246-2.329.431-1.144.313-2.24-.29-3.363-.422-1.426-.608-2.619-1.598-3.614-2.77-.136-.241-.418-.725-.554-.968-.335-2.513-.049-5.049.99-7.368.326-.722.63-1.458.902-2.201.313-.727.608-1.458.876-2.201.313-.727.608-1.457.88-2.201.313-.727.608-1.457.881-2.201.313-.727.608-1.457.876-2.201.317-.727.612-1.457.88-2.201a33.66 33.66 0 0 0 .877-2.201c2.654-6.603 5.335-13.202 7.914-19.836.29-.585.581-1.17.876-1.756 1.189-1.915 2.985-3.253 5.01-4.19 2.32-.093 4.74-.401 6.95.505 1.449.88 2.58 2.135 3.452 3.58.62-.445 1.254-.872 1.88-1.308 1.21-.665 2.368-1.413 3.578-2.073 1.708-.617 3.43-1.233 5.22-1.568zm50.685.498c3.443-.78 6.99-.643 10.499-.524 1.946.22 3.83.797 5.683 1.413 1.888.845 3.614 1.985 5.322 3.143a139.091 139.091 0 0 1 3.12 3.121c.573.911 1.172 1.8 1.788 2.685.453.885.898 1.774 1.356 2.655.59 1.87 1.03 3.79 1.378 5.718.114 1.747.04 3.5.057 5.251.119 2.228-.757 4.328-.986 6.52a89.097 89.097 0 0 0-1.347 4.006c-2.184 5-5.164 9.715-9.332 13.294-2.443 1.765-5.093 3.23-8.008 4.054-5.07.898-10.256.563-15.389.515-3.526-.37-7.21-.995-10.085-3.236-2.685-2.324-4.842-5.203-6.25-8.465a34.54 34.54 0 0 0-.454-1.347c-1.598-5.872-1.272-12.11.449-17.916.339-.73.638-1.483.894-2.245a88.207 88.207 0 0 1 1.77-3.535c2.53-4.15 5.92-7.699 9.785-10.626.453-.304.907-.607 1.356-.916 1.44-.783 2.905-1.514 4.38-2.231 1.342-.423 2.685-.863 4.014-1.334zm49.307 1.976c2.782-1.153 5.634-2.31 8.667-2.518 3.557-.096 7.202-.325 10.587.978 2.68 1.153 5.172 2.764 7.136 4.947 3.2 4.222 4.067 9.874 2.694 14.932a26.51 26.51 0 0 0-.92 2.192c-.313.462-.612.933-.903 1.409-.594.612-1.197 1.215-1.791 1.827-.608.303-1.21.62-1.81.942-2.892 1.131-6.51.607-8.522-1.898-.929-1.914-.37-4.089-.717-6.11-.15-.787-.212-1.589-.247-2.39-.563-1.06-1.422-2.122-2.69-2.276-1.681-.04-3.503-.277-4.978.731-2.095.99-3.517 2.857-4.803 4.71a77.31 77.31 0 0 0-1.047 1.708c-.727 1.54-1.387 3.152-1.48 4.873-.695 2.734-.237 5.846 1.484 8.117 1.849 1.928 4.68 2.263 7.18 2.699 5.727.097 11.462-.009 17.194.044 1.474.158 2.918.572 4.353.95.793.582 1.576 1.176 2.311 1.84.12.247.361.745.48.996.115.871.322 1.73.489 2.597-.238 1.307-.52 2.61-.925 3.882-.506.599-.981 1.22-1.439 1.853-.62.445-1.224.907-1.814 1.383-.215.119-.651.352-.867.47-1.607.542-3.218 1.172-4.948 1.048-8.275-.004-16.555.172-24.827-.11-.598-.224-1.21-.378-1.827-.523a38.802 38.802 0 0 0-2.645-1.044 38.396 38.396 0 0 1-3.579-2.54c-1.263-1.003-2.087-2.416-3.178-3.579a103.538 103.538 0 0 1-2.236-4.41c-2.356-6.99-1.695-14.672.898-21.5.58-1.184 1.162-2.368 1.791-3.526.48-.713.911-1.452 1.334-2.196 2.505-3.385 5.507-6.414 8.905-8.9a59.375 59.375 0 0 0 2.69-1.608zm119.223-2.46c4.57-.247 9.284-.388 13.606 1.377a22.76 22.76 0 0 1 10.517 9.43c.19.43.387.858.585 1.29.269.756.573 1.505.92 2.235 1.796 6.163 1.123 12.762-.889 18.793-.343.726-.647 1.47-.898 2.231-.7 1.488-1.435 2.954-2.205 4.402-2.382 3.892-5.446 7.391-9.35 9.808-.885.445-1.765.89-2.646 1.334-.915.277-1.822.58-2.711.92-5.05.893-10.209.554-15.315.524-1.461.074-2.84-.533-4.296-.52-1.43-.537-2.945-.89-4.257-1.69-2.47-1.475-4.358-3.702-6.061-5.974-.617-1.166-1.202-2.342-1.796-3.517-1.814-5.177-1.788-10.79-.885-16.133.193-.603.334-1.22.48-1.836.303-.88.594-1.765.867-2.654.85-1.779 1.717-3.548 2.663-5.278.308-.445.616-.894.924-1.338.458-.586.903-1.184 1.321-1.8 2.214-2.365 4.433-4.768 7.096-6.639.449-.3.894-.603 1.343-.916 3.398-1.967 7.104-3.407 10.987-4.05zm47.128.48c2.711-.877 6.145-1.163 8.399.915 1.065.85 1.72 2.056 2.337 3.24.101 1.888.044 3.781-.546 5.595a69.683 69.683 0 0 0-1.796 4.415c-.326.722-.62 1.457-.885 2.201a29.734 29.734 0 0 0-.876 2.201 114.588 114.588 0 0 0-1.76 4.402c-.322.722-.621 1.457-.885 2.201a26.519 26.519 0 0 0-.867 2.214c-.216.467-.423.938-.63 1.409-.132.414-.268.827-.41 1.237-.145.44-.285.88-.43 1.316-.164.436-.335.872-.503 1.307-.383 1.136-.488 2.355.177 3.42 1.065.996 2.557.833 3.904.833 2.03.11 3.988-.643 5.78-1.537 2.025-1.355 3.614-3.319 4.296-5.678.304-.73.599-1.466.872-2.21.308-.726.603-1.457.88-2.201.308-.726.603-1.461.88-2.201.309-.726.604-1.461.881-2.201.308-.726.603-1.461.88-2.2.309-.732.603-1.462.88-2.206.305-.727.604-1.457.877-2.197.308-.726.612-1.461.885-2.2.308-.732.603-1.471.862-2.224a60.58 60.58 0 0 1 2.206-4.41c.308-.454.607-.912.907-1.374 1.351-1.59 3.09-2.773 4.952-3.698 1.721-.123 3.455-.145 5.18-.009 1.414.683 2.629 1.678 3.672 2.84.101.233.304.704.405.942.176.466.374.933.581 1.395.251 2.861-1.052 5.516-1.884 8.183-.33.722-.634 1.457-.907 2.201a40.865 40.865 0 0 0-.876 2.201 36.383 36.383 0 0 0-.88 2.201 40.854 40.854 0 0 0-.885 2.197 44.94 44.94 0 0 0-.88 2.201 28.73 28.73 0 0 0-.867 2.21c-1.466 3.266-2.76 6.607-4.024 9.953 4.415.1 8.927-.432 13.206.96.819.792 1.787 1.522 2.228 2.618.25.832.325 1.713.559 2.558-.313 1.387-.432 2.813-.894 4.164-.832 1.303-1.897 2.426-3.227 3.223-.607.299-1.21.598-1.805.91-2.843.86-5.837.577-8.764.63-3.944-.03-7.888.088-11.828-.11-1.655-.744-3.024-1.932-4.195-3.293-.026-.189-.084-.572-.115-.761a75.002 75.002 0 0 1-2.795 2.628c-.603.286-1.201.577-1.791.867-.471.167-.934.348-1.387.542-5.498.21-11.01.198-16.507-.005-.471-.19-.938-.36-1.409-.52-1.778-.8-3.557-1.712-4.93-3.125-1.426-1.373-2.302-3.174-3.148-4.934-.638-2.135-.625-4.367-.493-6.572.423-2.087 1.154-4.094 1.85-6.106.33-.722.629-1.457.902-2.201.312-.726.607-1.457.876-2.201.312-.726.611-1.457.884-2.201.308-.726.608-1.457.88-2.201.313-.726.608-1.457.881-2.201.313-.726.608-1.457.88-2.2.313-.727.608-1.458.88-2.202.313-.726.608-1.457.881-2.2.308-.727.608-1.458.885-2.198.308-.735.608-1.47.858-2.227.564-1.188 1.158-2.364 1.752-3.54a16.618 16.618 0 0 1 4.984-4.987zM185.1 56.131c1.571-1.096 3.411-1.734 5.304-1.959 1.065-.026 2.073.392 3.125.493 1.766.854 3.183 2.311 4.085 4.041 1.325 4.613.344 9.764-2.377 13.704-1.056 1.66-2.518 3.055-4.283 3.93-2.98 1.242-6.418 1.202-9.411.023-1.184-.854-2.448-1.805-2.95-3.236-1.144-3.464-.449-7.272 1.127-10.494 1.268-2.54 3.038-4.86 5.38-6.502zm167.627-1.034c1.818-.573 3.781-1.339 5.683-.621 2.377.348 4.12 2.285 5.172 4.318 1.052 3.619.577 7.545-.92 10.97-.33.612-.673 1.22-1.034 1.81-.295.435-.581.87-.868 1.311a10.075 10.075 0 0 1-3.371 3.218c-1.559.863-3.32.986-5.045 1.224-2.676-.194-5.912-.643-7.334-3.258-1.998-3.588-.995-7.963.67-11.476 1.566-3.099 3.886-5.938 7.047-7.496zm144.508 21.169c2.21-1.4 4.79-1.66 7.347-1.405.48.19.968.366 1.47.529A12.126 12.126 0 0 1 511 79.934c1.11 2.482 1.347 5.26.453 7.853-.317.598-.62 1.206-.91 1.813-1 1.127-2.079 2.175-3.179 3.192-2.69 1.386-5.956 1.417-8.782.453-.22-.128-.665-.374-.885-.497-2.386-1.484-4.04-3.953-4.613-6.696-.08-1.267-.026-2.544 0-3.816.19-.471.37-.947.55-1.422.282-.603.577-1.202.867-1.8.894-.934 1.805-1.85 2.734-2.747z" fill="#E42E16" fill-rule="evenodd"></path></svg><svg width="963" height="431" viewBox="17 -124 963 431" id="less-logo" x="3203" y="3388"><defs><linearGradient x1="50%" y1="0%" x2="50%" y2="100%" id="a"><stop stop-color="#2A4F84" offset="14.97%"></stop><stop stop-color="#294E82" offset="38.84%"></stop><stop stop-color="#172E4E" offset="100%"></stop></linearGradient></defs><g transform="translate(20.531 -120.844)" fill="none" fill-rule="evenodd"><path d="M906.763 342.534c0 44.958-36.784 81.742-81.743 81.742H137.97c-44.957 0-81.742-36.784-81.742-81.742V82.21C56.228 37.252 93.013.468 137.97.468h687.05c44.959 0 81.743 36.784 81.743 81.742v260.324z" fill="url(#a)"></path><path d="M763.038 206.81c35.91 12.564 53.856 34.089 53.856 64.544 0 20.046-7.442 35.957-22.296 47.725-14.837 11.776-36.005 19.084-63.556 19.084-27.553 0-53.038-7.983-76.51-21.088.253-6.95 2.09-14.575 5.462-22.852 3.372-8.277 7.363-14.853 11.937-19.656 21.572 11.21 40.346 16.826 56.28 16.826 7.531 0 13.358-1.264 17.414-3.81 4.063-2.535 6.083-5.94 6.083-10.216 0-8.04-6.226-14.051-18.637-18.058l-22.297-8.421c-33.73-12.293-50.596-32.323-50.596-60.146 0-20.316 7.086-36.418 21.255-48.33 14.17-11.895 33.27-22.137 57.284-22.137 11.88 0 24.96 1.67 39.272 5.01 14.296 3.348 26.041 11.594 35.217 16.125.541 7.49-.962 15.712-4.452 24.665-3.514 8.96-7.823 15.306-12.969 19.052-22.684-10.162-41.562-15.243-56.685-15.243-5.416 0-9.495 1.2-12.358 3.618-2.83 2.41-4.222 5.478-4.222 9.224 0 6.417 5.12 11.49 15.385 15.235l25.134 8.85zM583.683 206.81c35.91 12.564 53.849 34.089 53.849 64.544 0 20.046-7.444 35.957-22.273 47.725-14.852 11.776-36.028 19.084-63.572 19.084-27.528 0-53.045-7.983-76.51-21.088.255-6.95 2.091-14.575 5.47-22.852 3.373-8.277 7.348-14.853 11.937-19.656 21.597 11.21 40.362 16.826 56.288 16.826 7.538 0 13.367-1.264 17.407-3.81 4.048-2.535 6.082-5.94 6.082-10.216 0-8.04-6.226-14.051-18.638-18.058l-22.28-8.421c-33.738-12.293-50.611-32.323-50.611-60.146 0-20.316 7.084-36.418 21.27-48.33 14.162-11.895 33.253-22.137 57.267-22.137 11.871 0 24.983 1.67 39.264 5.01 14.313 3.348 26.043 11.594 35.226 16.125.54 7.49-.963 15.712-4.452 24.665-3.508 8.96-7.825 15.306-12.962 19.052-22.694-10.162-41.57-15.243-56.702-15.243-5.407 0-9.502 1.2-12.349 3.618-2.822 2.41-4.23 5.478-4.23 9.224 0 6.417 5.129 11.49 15.394 15.235l25.125 8.85zM452.889 209.64c0-12.292-1.957-23.655-5.868-34.088-3.905-10.432-9.51-19.378-16.795-26.868-7.291-7.49-16.125-13.367-26.51-17.645-10.401-4.27-22.075-10.711-35.028-10.711-15.387 0-28.815 6.966-40.281 12.317-11.466 5.344-20.913 12.69-28.332 22.05-7.435 9.366-12.97 20.388-16.611 33.086C279.822 200.48 278 214.315 278 229.28c0 15.49 1.48 29.818 4.454 42.914 2.966 13.08 8.03 24.435 15.18 34.073 7.155 9.62 16.466 17.104 27.94 22.439 11.474 5.344 25.715 9.447 42.716 9.447 31.305 0 57.752-9.065 79.349-24.292-2.14-15.49-7.658-27.807-16.524-36.896-11.029 4.142-20.786 7.108-29.245 8.93-8.469 1.798-15.935 2.704-22.384 2.704-12.906 0-22.192-3.284-27.83-9.915-5.63-6.608-8.72-14.424-9.267-26.296h105.265c3.478-11.243 5.235-26.438 5.235-42.747zm-110.9 2.777c.802-13.645 3.292-28.244 7.435-34.255 4.15-6.02 10.504-9.025 19.083-9.025 8.834 0 15.466 3.197 19.878 9.614 4.423 6.417 6.632 19.346 6.632 29.237l.007 4.429h-53.036z" fill="#F6F6F6"></path><path d="M927.955 239.094c-11.442 9.995-18.083 24.379-18.083 43.185v70.037c0 23.282-7.156 40.99-23.321 53.164-16.15 12.158-34.98 18.177-56.473 18.757l-12.737-.096v-34.9c11.227-3.275 15.838-7.083 20.308-11.41 8.095-7.314 14.297-19.218 14.297-35.75V285.54c.301-19.22 1.78-34.28 8.777-45.157 7.023-10.878 20.69-20.388 41.007-28.602-22.44-10.273-37.509-23.688-45.19-40.235-4.515-9.828-4.603-23.091-4.603-39.774V79.919c0-17.128-5.606-29.126-12.5-35.973-4.485-4.47-9.702-8.04-22.114-10.734V.45c15.18.159 22.846-.015 31.688 0 13.613-.111 25.016 7.332 34.938 15.084 10.808 8.5 18.488 19.99 22.989 34.454 2.56 8.357 2.926 16.34 2.926 23.942v59.97c0 21.183 6.257 36.928 16.952 47.209 6.029 5.964 14.536 11.418 29.144 16.34v27.092c-12.945 3.579-21.072 8.429-28.005 14.552zM122.755.469v.047c-4.349-.024-8.285-.04-11.433-.032C97.7.364 86.299 7.808 76.382 15.568 65.561 24.068 56.3 35.16 53.397 50.022c-1.654 8.715-1.304 16.332-1.304 23.942v59.97c0 21.176-7.88 36.912-18.568 47.21-6.02 5.963-18.87 11.409-33.484 16.33v27.09c12.952 3.572 25.421 8.406 32.338 14.545 11.45 10.003 19.704 24.396 19.704 43.2v70.037c0 23.267 5.55 40.99 21.7 53.148 16.15 12.15 34.97 18.193 56.463 18.78l14.385-.095v-34.923c-11.22-3.284-17.454-7.093-21.947-11.403-8.087-7.324-12.666-19.22-12.666-35.742V285.56c-.31-19.234-3.412-34.28-10.416-45.165-7.005-10.862-20.675-20.388-41.015-28.594 22.448-10.281 37.508-23.688 45.19-40.227 4.525-9.836 6.242-23.1 6.242-39.781V79.94c0-17.128 3.974-29.126 10.861-35.98 3.738-3.721 10.385-6.783 19.618-9.263l14.599.102V.466h-32.34v.003h-.002z" stroke="#404040" stroke-width="5.151" fill="#F6F6F6"></path><path d="M257.353 284.608h-10.934c-11.887 0-16.364-6.25-16.364-18.805V35.058c0-13.875-4.007-23.616-9.137-29.23C215.79.232 206.885.288 194.202.288h-24.69l-2.91-.056v.238l-.025 34.343v242.156c0 19.258 4.327 33.349 12.023 42.318 7.704 8.953 20.721 13.422 39.073 13.422 12.691 0 27.131-1.336 43.32-4.016.812-2.704 1.218-8.492 1.218-17.374 0-8.906-1.622-17.788-4.858-26.71z" fill="#F6F6F6"></path></g></svg><svg width="194" height="51" viewBox="129 179 194 51" id="logo" x="4166" y="3819"><g fill="none" fill-rule="evenodd" transform="translate(129 179)" font-family="Digital-Medium"><text font-size="36"><tspan x="0" y="34" fill="#2AC6AD">Razvan</tspan><tspan x="122.868" y="34" fill="#093955">Stan</tspan></text><text font-size="12.3" fill="#093955"><tspan x="1" y="48">Front-</tspan><tspan x="32.242" y="48" font-size="12">end</tspan><tspan x="52.702" y="48">developer | Timisoara, RO</tspan></text></g></svg><svg width="256" height="252" viewBox="0 0 256 252" preserveAspectRatio="xMidYMid" id="mysql" x="4360" y="3870"><path d="M235.648 194.212c-13.918-.347-24.705 1.045-33.752 4.872-2.61 1.043-6.786 1.044-7.134 4.35 1.392 1.392 1.566 3.654 2.784 5.567 2.09 3.479 5.741 8.177 9.047 10.614 3.653 2.783 7.308 5.566 11.134 8.002 6.786 4.176 14.442 6.611 21.053 10.787 3.829 2.434 7.654 5.568 11.482 8.177 1.914 1.39 3.131 3.654 5.568 4.523v-.521c-1.219-1.567-1.567-3.828-2.784-5.568-1.738-1.74-3.48-3.306-5.22-5.046-5.045-6.784-11.308-12.7-18.093-17.571-5.567-3.828-17.747-9.047-20.008-15.485 0 0-.175-.173-.348-.347 3.827-.348 8.35-1.74 12.005-2.784 5.915-1.567 11.308-1.218 17.398-2.784 2.783-.696 5.567-1.566 8.35-2.436v-1.565c-3.13-3.132-5.392-7.307-8.698-10.265-8.873-7.657-18.617-15.137-28.707-21.4-5.394-3.48-12.354-5.742-18.095-8.699-2.086-1.045-5.567-1.566-6.784-3.306-3.133-3.827-4.873-8.872-7.134-13.396-5.044-9.57-9.917-20.182-14.267-30.272-3.13-6.786-5.044-13.572-8.872-19.834-17.92-29.577-37.406-47.497-67.33-65.07-6.438-3.653-14.093-5.219-22.27-7.132-4.348-.175-8.699-.522-13.048-.697-2.784-1.218-5.568-4.523-8.004-6.089C34.006 4.573 8.429-8.996 1.122 8.924c-4.698 11.308 6.96 22.442 10.96 28.185 2.96 4.001 6.786 8.524 8.874 13.048 1.218 2.956 1.565 6.09 2.783 9.221 2.785 7.653 5.393 16.18 9.048 23.314 1.914 3.653 4.001 7.48 6.437 10.786 1.392 1.913 3.827 2.784 4.35 5.915-2.435 3.48-2.61 8.7-4.003 13.049-6.263 19.66-3.826 44.017 5.046 58.457 2.783 4.348 9.395 13.92 18.268 10.265 7.83-3.131 6.09-13.048 8.35-21.747.524-2.09.176-3.48 1.219-4.872v.349c2.436 4.87 4.871 9.569 7.133 14.44 5.394 8.524 14.788 17.398 22.617 23.314 4.177 3.13 7.482 8.524 12.702 10.438v-.523h-.349c-1.044-1.566-2.61-2.261-4.001-3.48-3.131-3.13-6.612-6.958-9.047-10.438-7.306-9.744-13.745-20.53-19.486-31.665-2.783-5.392-5.22-11.308-7.481-16.701-1.045-2.09-1.045-5.22-2.784-6.263-2.61 3.827-6.437 7.133-8.351 11.83-3.304 7.481-3.653 16.702-4.871 26.27-.696.176-.349 0-.697.35-5.566-1.394-7.48-7.134-9.569-12.006-5.22-12.352-6.09-32.186-1.565-46.452 1.218-3.654 6.438-15.136 4.35-18.616-1.044-3.306-4.525-5.22-6.438-7.829-2.261-3.306-4.698-7.48-6.263-11.135-4.176-9.743-6.264-20.53-10.787-30.273-2.088-4.524-5.74-9.22-8.699-13.396-3.305-4.697-6.959-8.004-9.569-13.571-.869-1.913-2.088-5.045-.696-7.133.348-1.392 1.043-1.913 2.436-2.261 2.262-1.915 8.7.521 10.96 1.565 6.438 2.608 11.831 5.046 17.225 8.699 2.435 1.74 5.045 5.046 8.176 5.916h3.654c5.568 1.217 11.83.348 17.05 1.913 9.222 2.957 17.572 7.307 25.054 12.005 22.792 14.44 41.58 34.97 54.282 59.501 2.088 4 2.957 7.656 4.871 11.83 3.655 8.526 8.178 17.225 11.83 25.576 3.654 8.176 7.133 16.528 12.353 23.314 2.61 3.652 13.048 5.567 17.746 7.481 3.48 1.565 8.874 2.958 12.005 4.871 5.915 3.652 11.83 7.83 17.398 11.83 2.784 2.088 11.482 6.438 12.005 9.917z" fill="#00546B"></path><path d="M58.186 43.022c-2.957 0-5.044.35-7.132.871v.348h.348c1.393 2.784 3.827 4.698 5.566 7.133 1.393 2.783 2.61 5.568 4.003 8.352.173-.175.347-.348.347-.348 2.437-1.741 3.654-4.524 3.654-8.7-1.044-1.217-1.218-2.435-2.088-3.653-1.043-1.741-3.306-2.61-4.698-4.003z" fill="#00546B"></path></svg><svg width="256" height="289" viewBox="0 0 256 289" preserveAspectRatio="xMidYMid" id="nodejs" x="4616" y="4122"><path d="M128 288.464c-3.975 0-7.685-1.06-11.13-2.915l-35.247-20.936c-5.3-2.915-2.65-3.975-1.06-4.505 7.155-2.385 8.48-2.915 15.9-7.156.796-.53 1.856-.265 2.65.265l27.032 16.166c1.06.53 2.385.53 3.18 0l105.74-61.217c1.06-.53 1.59-1.59 1.59-2.915V83.08c0-1.325-.53-2.385-1.59-2.915l-105.74-60.953c-1.06-.53-2.385-.53-3.18 0L20.405 80.166c-1.06.53-1.59 1.855-1.59 2.915v122.17c0 1.06.53 2.385 1.59 2.915l28.887 16.695c15.636 7.95 25.44-1.325 25.44-10.6V93.68c0-1.59 1.326-3.18 3.181-3.18h13.516c1.59 0 3.18 1.325 3.18 3.18v120.58c0 20.936-11.396 33.126-31.272 33.126-6.095 0-10.865 0-24.38-6.625l-27.827-15.9C4.24 220.885 0 213.465 0 205.515V83.346C0 75.396 4.24 67.976 11.13 64L116.87 2.783c6.625-3.71 15.635-3.71 22.26 0L244.87 64C251.76 67.975 256 75.395 256 83.346v122.17c0 7.95-4.24 15.37-11.13 19.345L139.13 286.08c-3.445 1.59-7.42 2.385-11.13 2.385zm32.596-84.009c-46.377 0-55.917-21.2-55.917-39.221 0-1.59 1.325-3.18 3.18-3.18h13.78c1.59 0 2.916 1.06 2.916 2.65 2.12 14.045 8.215 20.936 36.306 20.936 22.261 0 31.802-5.035 31.802-16.96 0-6.891-2.65-11.926-37.367-15.372-28.886-2.915-46.907-9.275-46.907-32.33 0-21.467 18.02-34.187 48.232-34.187 33.921 0 50.617 11.66 52.737 37.101 0 .795-.265 1.59-.795 2.385-.53.53-1.325 1.06-2.12 1.06h-13.78c-1.326 0-2.65-1.06-2.916-2.385-3.18-14.575-11.395-19.345-33.126-19.345-24.38 0-27.296 8.48-27.296 14.84 0 7.686 3.445 10.07 36.306 14.31 32.597 4.24 47.967 10.336 47.967 33.127-.265 23.321-19.345 36.571-53.002 36.571z" fill="#539E43"></path></svg><svg width="595.279" height="580.398" viewBox="0 130.746 595.279 580.398" id="photoshop-cc" x="4872" y="4411"><radialGradient id="a" cx="-183.69" cy="328.972" r=".76" gradientTransform="matrix(545.6736 0 0 528.3113 100439.305 -173525.125)" gradientUnits="userSpaceOnUse"><stop offset="0" stop-color="#34364e" stop-opacity=".98"></stop><stop offset="1" stop-color="#0c0824"></stop></radialGradient><path d="M24.803 155.549h545.674v530.792H24.803V155.549z" fill="url(#a)"></path><path d="M24.803 155.549h545.674v530.792H24.803V155.549zM0 711.145h595.28V130.746H0v580.399zm401.318-342.287c-19.595 0-26.291 9.921-26.291 18.106 0 8.929 4.464 15.13 30.756 28.772 38.941 18.851 51.095 36.957 51.095 63.497 0 39.685-30.26 61.016-71.186 61.016-21.579 0-40.182-4.465-50.847-10.665-1.736-.744-1.984-1.984-1.984-3.969v-36.461c0-2.48 1.24-3.225 2.977-1.984 15.626 10.17 33.484 14.634 49.854 14.634 19.595 0 27.78-8.185 27.78-19.347 0-8.929-5.705-16.866-30.757-29.764-35.221-16.866-49.854-33.98-49.854-62.504 0-31.997 25.052-58.536 68.457-58.536 21.331 0 36.213 3.225 44.398 6.945 1.984 1.24 2.48 3.224 2.48 4.96v33.98c0 1.984-1.24 3.225-3.721 2.48-10.913-6.943-27.035-11.16-43.157-11.16zm-213.309 29.516c5.705.496 10.17.496 20.091.496 29.021 0 56.304-10.169 56.304-49.606 0-31.5-19.595-47.375-52.583-47.375-9.921 0-19.347.496-23.812.744v95.741zM143.86 266.668c0-1.736 3.473-2.977 5.456-2.977 15.875-.744 39.438-1.24 63.993-1.24 68.705 0 95.492 37.701 95.492 85.82 0 63-45.638 90.036-101.693 90.036-9.425 0-12.649-.496-19.347-.496v95.245c0 1.984-.744 2.976-2.976 2.976h-37.949c-1.984 0-2.977-.744-2.977-2.976V266.668z" fill="#31c5f0"></path></svg><svg width="256" height="135" viewBox="0 0 256 135" preserveAspectRatio="xMidYMid" id="php" x="5468" y="4992"><defs><radialGradient id="a" cx=".837" cy="-125.811" r="363.057" gradientTransform="matrix(.463 0 0 .463 76.464 81.918)" gradientUnits="userSpaceOnUse"><stop offset="0" stop-color="#fff"></stop><stop offset=".5" stop-color="#4c6b97"></stop><stop offset="1" stop-color="#231f20"></stop></radialGradient></defs><ellipse fill="url(#a)" cx="128" cy="67.3" rx="128" ry="67.3"></ellipse><ellipse fill="#6181B6" cx="128" cy="67.3" rx="123" ry="62.3"></ellipse><g fill="#FFF"><path d="M152.9 87.5l6.1-31.4c1.4-7.1.2-12.4-3.4-15.7-3.5-3.2-9.5-4.8-18.3-4.8h-10.6l3-15.6c.1-.6 0-1.2-.4-1.7s-.9-.7-1.5-.7h-14.6c-1 0-1.8.7-2 1.6l-6.5 33.3c-.6-3.8-2-7-4.4-9.6-4.3-4.9-11-7.4-20.1-7.4H52.1c-1 0-1.8.7-2 1.6L37 104.7c-.1.6 0 1.2.4 1.7s.9.7 1.5.7h14.7c1 0 1.8-.7 2-1.6l3.2-16.3h10.9c5.7 0 10.6-.6 14.3-1.8 3.9-1.3 7.4-3.4 10.5-6.3 2.5-2.3 4.6-4.9 6.2-7.7l-2.6 13.5c-.1.6 0 1.2.4 1.7s.9.7 1.5.7h14.6c1 0 1.8-.7 2-1.6l7.2-37h10c4.3 0 5.5.8 5.9 1.2.3.3.9 1.5.2 5.2L134.1 87c-.1.6 0 1.2.4 1.7s.9.7 1.5.7h15c.9-.3 1.7-1 1.9-1.9zm-67.6-26c-.9 4.7-2.6 8.1-5.1 10-2.5 1.9-6.6 2.9-12 2.9h-6.5l4.7-24.2h8.4c6.2 0 8.7 1.3 9.7 2.4 1.3 1.6 1.6 4.7.8 8.9zM215.3 42.9c-4.3-4.9-11-7.4-20.1-7.4h-28.3c-1 0-1.8.7-2 1.6l-13.1 67.5c-.1.6 0 1.2.4 1.7s.9.7 1.5.7h14.7c1 0 1.8-.7 2-1.6l3.2-16.3h10.9c5.7 0 10.6-.6 14.3-1.8 3.9-1.3 7.4-3.4 10.5-6.3 2.6-2.4 4.8-5.1 6.4-8 1.6-2.9 2.8-6.1 3.5-9.6 1.7-8.7.4-15.5-3.9-20.5zM200 61.5c-.9 4.7-2.6 8.1-5.1 10-2.5 1.9-6.6 2.9-12 2.9h-6.5l4.7-24.2h8.4c6.2 0 8.7 1.3 9.7 2.4 1.4 1.6 1.7 4.7.8 8.9z"></path></g><g fill="#000004"><path d="M74.8 48.2c5.6 0 9.3 1 11.2 3.1 1.9 2.1 2.3 5.6 1.3 10.6-1 5.2-3 9-5.9 11.2-2.9 2.2-7.3 3.3-13.2 3.3h-8.9l5.5-28.2h10zM39 105h14.7l3.5-17.9h12.6c5.6 0 10.1-.6 13.7-1.8 3.6-1.2 6.8-3.1 9.8-5.9 2.5-2.3 4.5-4.8 6-7.5s2.6-5.7 3.2-9c1.6-8 .4-14.2-3.5-18.7s-10.1-6.7-18.6-6.7H52.1L39 105zM113.3 19.6h14.6l-3.5 17.9h13c8.2 0 13.8 1.4 16.9 4.3 3.1 2.9 4 7.5 2.8 13.9L151 87.1h-14.8l5.8-29.9c.7-3.4.4-5.7-.7-6.9-1.1-1.2-3.6-1.9-7.3-1.9h-11.7l-7.5 38.7h-14.6l13.1-67.5zM189.5 48.2c5.6 0 9.3 1 11.2 3.1 1.9 2.1 2.3 5.6 1.3 10.6-1 5.2-3 9-5.9 11.2-2.9 2.2-7.3 3.3-13.2 3.3H174l5.5-28.2h10zM153.7 105h14.7l3.5-17.9h12.6c5.6 0 10.1-.6 13.7-1.8 3.6-1.2 6.8-3.1 9.8-5.9 2.5-2.3 4.5-4.8 6-7.5s2.6-5.7 3.2-9c1.6-8 .4-14.2-3.5-18.7s-10.1-6.7-18.6-6.7h-28.3L153.7 105z"></path></g></svg><svg width="256" height="192" viewBox="0 0 256 192" preserveAspectRatio="xMidYMid" id="sass" x="5724" y="5127"><path d="M220.281 110.514c-8.906.046-16.647 2.191-23.128 5.362-2.379-4.71-4.757-8.906-5.176-11.984-.467-3.59-1.026-5.782-.467-10.072.56-4.29 3.078-10.399 3.031-10.865-.046-.466-.56-2.658-5.689-2.704-5.129-.047-9.559.979-10.072 2.331-.513 1.352-1.492 4.43-2.145 7.6-.886 4.664-10.258 21.31-15.62 30.03-1.726-3.403-3.218-6.388-3.545-8.766-.466-3.59-1.026-5.782-.466-10.072.56-4.29 3.078-10.398 3.031-10.865-.047-.466-.56-2.658-5.689-2.704-5.13-.047-9.56.979-10.072 2.331-.513 1.353-1.073 4.523-2.145 7.601-1.073 3.078-13.523 30.87-16.787 38.05a214.726 214.726 0 0 1-4.15 8.627s-.047.14-.187.373a117.773 117.773 0 0 1-1.398 2.658v.046c-.7 1.26-1.446 2.425-1.819 2.425-.28 0-.793-3.357.093-7.927 1.865-9.652 6.295-24.667 6.249-25.18 0-.28.839-2.891-2.891-4.244-3.638-1.352-4.943.886-5.27.886-.326 0-.56.793-.56.793s4.058-16.88-7.74-16.88c-7.367 0-17.533 8.067-22.569 15.341a6269.96 6269.96 0 0 0-17.16 9.373c-2.75 1.539-5.595 3.078-8.253 4.523-.187-.186-.373-.42-.56-.606-14.269-15.248-40.661-26.02-39.542-46.49.42-7.461 2.984-27.046 50.687-50.827 39.262-19.352 70.505-13.99 75.914-2.099 7.74 16.974-16.74 48.496-57.309 53.065-15.481 1.726-23.595-4.243-25.646-6.481-2.145-2.332-2.472-2.472-3.265-2.005-1.305.7-.466 2.798 0 4.01 1.213 3.17 6.202 8.766 14.642 11.518 7.461 2.424 25.6 3.777 47.563-4.71 24.574-9.513 43.786-35.952 38.144-58.101-5.643-22.476-42.947-29.89-78.246-17.347C61.086 13.99 38.33 25.74 21.963 41.035 2.518 59.22-.56 75.028.699 81.65c4.524 23.501 36.932 38.796 49.895 50.127-.653.373-1.26.7-1.772.98-6.482 3.217-31.196 16.133-37.351 29.796-6.994 15.481 1.12 26.58 6.482 28.071 16.647 4.617 33.76-3.683 42.946-17.393 9.186-13.709 8.067-31.522 3.824-39.682-.047-.093-.093-.187-.187-.28 1.679-.979 3.404-2.005 5.083-2.984a247.933 247.933 0 0 1 9.373-5.27c-1.586 4.337-2.752 9.513-3.311 16.974-.7 8.767 2.89 20.144 7.6 24.62 2.099 1.96 4.57 2.006 6.156 2.006 5.502 0 7.974-4.57 10.725-9.979 3.357-6.621 6.388-14.315 6.388-14.315s-3.777 20.797 6.482 20.797c3.73 0 7.507-4.85 9.186-7.321v.046s.093-.14.28-.466c.373-.606.606-.98.606-.98v-.092c1.492-2.612 4.85-8.534 9.839-18.373 6.435-12.683 12.637-28.537 12.637-28.537s.56 3.87 2.471 10.305c1.12 3.777 3.45 7.927 5.316 11.937-1.492 2.099-2.425 3.264-2.425 3.264l.047.047c-1.213 1.585-2.518 3.31-3.964 4.99-5.083 6.061-11.144 13.01-11.984 15.014-.98 2.378-.746 4.104 1.12 5.503 1.352 1.026 3.776 1.165 6.248 1.026 4.57-.327 7.787-1.446 9.372-2.145 2.472-.886 5.363-2.239 8.067-4.244 4.99-3.684 8.02-8.953 7.741-15.9-.14-3.824-1.399-7.648-2.938-11.239.467-.652.886-1.305 1.353-1.958 7.88-11.518 13.989-24.155 13.989-24.155s.56 3.87 2.471 10.306c.933 3.264 2.845 6.808 4.523 10.258-7.414 6.016-11.984 13.01-13.616 17.58-2.937 8.487-.653 12.31 3.684 13.196 1.958.42 4.756-.513 6.808-1.399 2.611-.839 5.689-2.284 8.627-4.43 4.99-3.683 9.792-8.813 9.512-15.76-.14-3.171-.979-6.296-2.145-9.327 6.295-2.61 14.409-4.056 24.76-2.844 22.197 2.611 26.58 16.46 25.74 22.29-.839 5.828-5.502 8.999-7.04 9.978-1.54.98-2.052 1.306-1.912 2.005.186 1.026.932.98 2.238.793 1.819-.326 11.658-4.71 12.077-15.435.7-13.709-12.357-28.677-35.439-28.537zM49.055 168.242c-7.368 8.02-17.626 11.051-22.056 8.487-4.756-2.752-2.891-14.596 6.155-23.082 5.502-5.176 12.59-9.98 17.3-12.917 1.072-.653 2.658-1.585 4.57-2.751.326-.187.513-.28.513-.28l1.119-.7c3.31 12.124.14 22.803-7.601 31.243zm53.625-36.465c-2.565 6.249-7.927 22.243-11.191 21.357-2.798-.746-4.524-12.87-.56-24.854 2.005-6.016 6.248-13.197 8.72-15.994 4.01-4.477 8.44-5.97 9.512-4.15 1.353 2.378-4.896 19.724-6.481 23.641zm44.252 21.17c-1.073.56-2.098.933-2.565.653-.326-.187.467-.933.467-.933s5.549-5.968 7.74-8.673c1.26-1.585 2.751-3.45 4.337-5.549v.606c0 7.135-6.902 11.938-9.98 13.896zm34.133-7.787c-.793-.56-.653-2.425 2.005-8.254 1.026-2.285 3.45-6.108 7.601-9.792.466 1.492.793 2.938.746 4.29-.047 9-6.481 12.357-10.352 13.756z" fill="#CD6799"></path></svg><svg width="256" height="254" viewBox="0 0 256 254" preserveAspectRatio="xMinYMin meet" id="sketch" x="5980" y="5319"><path d="M256 64L128.662 253.793 0 64l44.138-51.2L83.862 0h88.276l39.724 12.8L256 64" fill="#E38B26"></path><path d="M128.662 253.793L44.138 86.952h167.724l-83.2 166.841" fill="#ECC13E"></path><path d="M44.138 86.952h167.724l-30.896-57.38H75.034l-30.896 57.38" fill="#FAEB98"></path><path d="M75.034 29.572L44.138 12.8 83.862 0h88.276l39.724 12.8-30.896 16.772H75.034" fill="#FDFACA"></path><path d="M0 64l44.138-51.2 30.896 16.772-30.896 57.38L0 64M181.44 28.717l31.274-16.06 42.952 52.2-44.652 21.933-29.573-58.073" fill="#F6D563"></path></svg><svg width="256" height="153" viewBox="0 0 256 153" preserveAspectRatio="xMidYMid" id="woocommerce" x="6236" y="5573"><path d="M23.759 0h208.378C245.325 0 256 10.675 256 23.863v79.541c0 13.188-10.675 23.863-23.863 23.863H157.41l10.257 25.118-45.109-25.118H23.863c-13.187 0-23.862-10.675-23.862-23.863V23.863C-.104 10.78 10.57 0 23.759 0z" fill="#9B5C8F"></path><path d="M14.578 21.75c1.457-1.978 3.642-3.018 6.556-3.226 5.308-.417 8.326 2.08 9.054 7.492 3.226 21.75 6.764 40.17 10.51 55.259l22.79-43.395c2.082-3.955 4.684-6.036 7.806-6.244 4.579-.312 7.388 2.601 8.533 8.741 2.602 13.84 5.932 25.6 9.886 35.59 2.706-26.432 7.285-45.476 13.737-57.235 1.56-2.914 3.85-4.371 6.868-4.58 2.394-.207 4.579.521 6.556 2.082 1.977 1.561 3.018 3.538 3.226 5.932.104 1.873-.208 3.434-1.04 4.995-4.059 7.493-7.39 20.085-10.095 37.567-2.601 16.963-3.538 30.18-2.914 39.65.209 2.6-.208 4.89-1.248 6.868-1.25 2.289-3.122 3.538-5.516 3.746-2.706.208-5.515-1.04-8.221-3.85-9.678-9.887-17.379-24.664-22.998-44.332-6.765 13.32-11.76 23.31-14.986 29.97-6.14 11.76-11.343 17.796-15.714 18.108-2.81.208-5.203-2.186-7.284-7.18-5.307-13.633-11.031-39.962-17.17-78.986-.417-2.706.207-5.1 1.664-6.972zm223.636 16.338c-3.746-6.556-9.262-10.51-16.65-12.072-1.978-.416-3.85-.624-5.62-.624-9.99 0-18.107 5.203-24.455 15.61-5.412 8.845-8.117 18.627-8.117 29.346 0 8.013 1.665 14.881 4.995 20.605 3.746 6.556 9.262 10.51 16.65 12.071 1.977.417 3.85.625 5.62.625 10.094 0 18.211-5.203 24.455-15.61 5.411-8.95 8.117-18.732 8.117-29.45.104-8.117-1.665-14.882-4.995-20.501zm-13.112 28.826c-1.457 6.868-4.059 11.967-7.91 15.401-3.017 2.706-5.827 3.85-8.428 3.33-2.498-.52-4.58-2.705-6.14-6.764-1.25-3.226-1.873-6.452-1.873-9.47 0-2.601.208-5.203.728-7.596.937-4.267 2.706-8.43 5.515-12.384 3.435-5.1 7.077-7.18 10.823-6.452 2.498.52 4.58 2.706 6.14 6.764 1.249 3.226 1.873 6.452 1.873 9.47 0 2.706-.208 5.307-.728 7.7zm-52.033-28.826c-3.746-6.556-9.366-10.51-16.65-12.072-1.977-.416-3.85-.624-5.62-.624-9.99 0-18.107 5.203-24.455 15.61-5.411 8.845-8.117 18.627-8.117 29.346 0 8.013 1.665 14.881 4.995 20.605 3.746 6.556 9.262 10.51 16.65 12.071 1.978.417 3.85.625 5.62.625 10.094 0 18.211-5.203 24.455-15.61 5.412-8.95 8.117-18.732 8.117-29.45 0-8.117-1.665-14.882-4.995-20.501zm-13.216 28.826c-1.457 6.868-4.059 11.967-7.909 15.401-3.018 2.706-5.828 3.85-8.43 3.33-2.497-.52-4.578-2.705-6.14-6.764-1.248-3.226-1.872-6.452-1.872-9.47 0-2.601.208-5.203.728-7.596.937-4.267 2.706-8.43 5.516-12.384 3.434-5.1 7.076-7.18 10.822-6.452 2.498.52 4.58 2.706 6.14 6.764 1.25 3.226 1.873 6.452 1.873 9.47.105 2.706-.208 5.307-.728 7.7z" fill="#FFF"></path></svg><svg width="256" height="255" viewBox="0 0 256 255" preserveAspectRatio="xMidYMid" id="wordpress" x="6492" y="5726"><path d="M18.124 127.5c0 43.296 25.16 80.711 61.646 98.442L27.594 82.986a108.965 108.965 0 0 0-9.47 44.514zm183.221-5.52c0-13.517-4.856-22.879-9.02-30.165-5.545-9.01-10.742-16.64-10.742-25.65 0-10.055 7.626-19.415 18.368-19.415.485 0 .944.06 1.417.088-19.46-17.829-45.387-28.714-73.863-28.714-38.213 0-71.832 19.606-91.39 49.302 2.566.077 4.984.13 7.039.13 11.44 0 29.15-1.387 29.15-1.387 5.897-.348 6.592 8.312.702 9.01 0 0-5.926.697-12.52 1.042L100.32 194.7l23.937-71.79-17.042-46.692c-5.89-.345-11.47-1.042-11.47-1.042-5.894-.346-5.203-9.358.691-9.01 0 0 18.064 1.388 28.811 1.388 11.44 0 29.151-1.388 29.151-1.388 5.9-.348 6.594 8.312.702 9.01 0 0-5.938.697-12.52 1.042l39.529 117.581 10.91-36.458c4.728-15.129 8.327-25.995 8.327-35.36zm-71.921 15.088l-32.818 95.363a109.376 109.376 0 0 0 30.899 4.456c12.737 0 24.952-2.202 36.323-6.2a9.605 9.605 0 0 1-.779-1.507l-33.625-92.112zm94.058-62.045c.47 3.484.737 7.224.737 11.247 0 11.1-2.073 23.577-8.317 39.178l-33.411 96.6c32.518-18.963 54.39-54.193 54.39-94.545.002-19.017-4.856-36.9-13.4-52.48zM127.505 0C57.2 0 0 57.196 0 127.5c0 70.313 57.2 127.507 127.505 127.507 70.302 0 127.51-57.194 127.51-127.507C255.014 57.196 197.808 0 127.506 0zm0 249.163c-67.08 0-121.659-54.578-121.659-121.663 0-67.08 54.576-121.654 121.659-121.654 67.078 0 121.652 54.574 121.652 121.654 0 67.085-54.574 121.663-121.652 121.663z" fill="#464342"></path></svg></svg>