
<svg width="963px" height="431px" viewBox="17 -124 963 431" version="1.1" xmlns="http://www.w3.org/2000/svg" xmlns:xlink="http://www.w3.org/1999/xlink">
  <!-- Generator: Sketch 40.3 (33839) - http://www.bohemiancoding.com/sketch -->
  <desc>Created with Sketch.</desc>
  <defs>
    <linearGradient x1="50%" y1="-4.71911798e-06%" x2="50%" y2="100%" id="linearGradient-1">
      <stop stop-color="#2A4F84" offset="14.97%"></stop>
      <stop stop-color="#294E82" offset="38.839999%"></stop>
      <stop stop-color="#172E4E" offset="100%"></stop>
    </linearGradient>
  </defs>
  <g id="less-logo" stroke="none" stroke-width="1" fill="none" fill-rule="evenodd" transform="translate(20.000000, -121.000000)">
    <g id="svg3059">
      <g id="layer1" transform="translate(0.531250, 0.156250)">
        <path d="M906.7625,342.5338 C906.7625,387.4918 869.9785,424.2758 825.0205,424.2758 L137.9705,424.2758 C93.0125,424.2758 56.2285,387.4918 56.2285,342.5338 L56.2285,82.20979 C56.2285,37.25179 93.0125,0.46779 137.9705,0.46779 L825.0205,0.46779 C869.9785,0.46779 906.7625,37.25179 906.7625,82.20979 L906.7625,342.5338 L906.7625,342.5338 Z" id="path19" fill="url(#linearGradient-1)"></path>
        <path d="M763.0385,206.8108 C798.9475,219.3738 816.8945,240.8988 816.8945,271.3538 C816.8945,291.3998 809.4515,307.3108 794.5985,319.0788 C779.7605,330.8548 758.5935,338.1628 731.0415,338.1628 C703.4895,338.1628 678.0045,330.1798 654.5315,317.0748 C654.7855,310.1248 656.6225,302.4998 659.9945,294.2228 C663.3665,285.9458 667.3575,279.3698 671.9305,274.5668 C693.5035,285.7778 712.2765,291.3928 728.2115,291.3928 C735.7425,291.3928 741.5695,290.1288 745.6255,287.5838 C749.6885,285.0478 751.7085,281.6438 751.7085,277.3668 C751.7085,269.3278 745.4825,263.3158 733.0705,259.3088 L710.7745,250.8878 C677.0445,238.5948 660.1785,218.5648 660.1785,190.7418 C660.1785,170.4258 667.2635,154.3238 681.4335,142.4118 C695.6035,130.5168 714.7025,120.2748 738.7165,120.2748 C750.5965,120.2748 763.6765,121.9448 777.9885,125.2848 C792.2855,128.6328 804.0305,136.8788 813.2065,141.4098 C813.7475,148.8998 812.2445,157.1218 808.7545,166.0748 C805.2395,175.0358 800.9305,181.3808 795.7855,185.1268 C773.1005,174.9648 754.2235,169.8838 739.0995,169.8838 C733.6845,169.8838 729.6055,171.0848 726.7425,173.5018 C723.9115,175.9118 722.5195,178.9798 722.5195,182.7258 C722.5195,189.1428 727.6405,194.2158 737.9055,197.9608 L763.0385,206.8108 L763.0385,206.8108 Z" id="path21" fill="#F6F6F6"></path>
        <path d="M583.6835,206.8108 C619.5925,219.3738 637.5315,240.8988 637.5315,271.3538 C637.5315,291.3998 630.0885,307.3108 615.2595,319.0788 C600.4065,330.8548 579.2315,338.1628 551.6875,338.1628 C524.1595,338.1628 498.6425,330.1798 475.1775,317.0748 C475.4315,310.1248 477.2685,302.4998 480.6475,294.2228 C484.0195,285.9458 487.9945,279.3698 492.5835,274.5668 C514.1805,285.7778 532.9455,291.3928 548.8725,291.3928 C556.4105,291.3928 562.2385,290.1288 566.2785,287.5838 C570.3265,285.0478 572.3615,281.6438 572.3615,277.3668 C572.3615,269.3278 566.1355,263.3158 553.7235,259.3088 L531.4425,250.8878 C497.7045,238.5948 480.8315,218.5648 480.8315,190.7418 C480.8315,170.4258 487.9165,154.3238 502.1015,142.4118 C516.2635,130.5168 535.3545,120.2748 559.3685,120.2748 C571.2405,120.2748 584.3525,121.9448 598.6335,125.2848 C612.9465,128.6328 624.6755,136.8788 633.8585,141.4098 C634.3995,148.8998 632.8965,157.1218 629.4065,166.0748 C625.8995,175.0358 621.5825,181.3808 616.4455,185.1268 C593.7515,174.9648 574.8745,169.8838 559.7435,169.8838 C554.3365,169.8838 550.2415,171.0848 547.3945,173.5018 C544.5715,175.9118 543.1645,178.9798 543.1645,182.7258 C543.1645,189.1428 548.2925,194.2158 558.5585,197.9608 L583.6835,206.8108 L583.6835,206.8108 Z" id="path23" fill="#F6F6F6"></path>
        <path d="M452.8885,209.6408 C452.8885,197.3478 450.9325,185.9848 447.0205,175.5518 C443.1165,165.1198 437.5105,156.1738 430.2265,148.6838 C422.9345,141.1938 414.1005,135.3168 403.7155,131.0388 C393.3145,126.7688 381.6415,120.3278 368.6885,120.3278 C353.3015,120.3278 339.8725,127.2938 328.4065,132.6448 C316.9405,137.9888 307.4935,145.3358 300.0745,154.6948 C292.6395,164.0608 287.1055,175.0828 283.4635,187.7808 C279.8215,200.4798 278.0005,214.3148 278.0005,229.2798 C278.0005,244.7698 279.4795,259.0978 282.4535,272.1938 C285.4195,285.2738 290.4835,296.6288 297.6335,306.2668 C304.7895,315.8878 314.1005,323.3708 325.5745,328.7058 C337.0485,334.0498 351.2895,338.1528 368.2905,338.1528 C399.5955,338.1528 426.0425,329.0878 447.6385,313.8608 C445.4995,298.3708 439.9815,286.0538 431.1155,276.9648 C420.0865,281.1068 410.3295,284.0728 401.8695,285.8948 C393.4015,287.6928 385.9345,288.5988 379.4865,288.5988 C366.5805,288.5988 357.2935,285.3148 351.6565,278.6838 C346.0255,272.0758 342.9365,264.2598 342.3895,252.3878 L447.6545,252.3878 C451.1315,241.1448 452.8885,225.9498 452.8885,209.6408 L452.8885,209.6408 Z M341.9885,212.4168 C342.7905,198.7718 345.2805,184.1728 349.4235,178.1618 C353.5745,172.1428 359.9275,169.1368 368.5065,169.1368 C377.3415,169.1368 383.9725,172.3338 388.3855,178.7508 C392.8075,185.1678 395.0165,198.0968 395.0165,207.9878 L395.0245,212.4168 L341.9885,212.4168 L341.9885,212.4168 L341.9885,212.4168 Z" id="path25" fill="#F6F6F6"></path>
        <path d="M927.9545,239.0938 C916.5125,249.0888 909.8725,263.4728 909.8725,282.2788 L909.8725,352.3158 C909.8725,375.5978 902.7155,393.3058 886.5505,405.4798 C870.4005,417.6378 851.5715,423.6568 830.0785,424.2368 L817.3405,424.1408 L817.3405,389.2418 C828.5685,385.9658 833.1795,382.1578 837.6485,377.8318 C845.7435,370.5168 851.9455,358.6128 851.9455,342.0818 L851.9455,285.5388 C852.2475,266.3198 853.7265,251.2598 860.7235,240.3818 C867.7455,229.5038 881.4135,219.9938 901.7295,211.7798 C879.2905,201.5068 864.2215,188.0918 856.5405,171.5448 C852.0245,161.7168 851.9365,148.4538 851.9365,131.7708 L851.9365,79.91879 C851.9365,62.79079 846.3305,50.79279 839.4365,43.94579 C834.9525,39.47679 829.7355,35.90679 817.3235,33.21179 L817.3235,0.45079 C832.5035,0.60979 840.1685,0.43579 849.0105,0.45079 C862.6235,0.33979 874.0265,7.78279 883.9495,15.53479 C894.7565,24.03479 902.4365,35.52579 906.9375,49.98879 C909.4975,58.34579 909.8635,66.32979 909.8635,73.93079 L909.8635,133.9018 C909.8635,155.0838 916.1215,170.8288 926.8165,181.1098 C932.8445,187.0738 941.3525,192.5278 955.9595,197.4508 L955.9595,224.5418 C943.0155,228.1208 934.8885,232.9708 927.9545,239.0938 L927.9545,239.0938 Z" id="path27" stroke="#404040" stroke-width="5.15089989" fill="#F6F6F6"></path>
        <path d="M122.7555,0.46879 L122.7555,0.51579 C118.4065,0.49179 114.4695,0.47579 111.3215,0.48379 C97.7005,0.36479 86.2985,7.80779 76.3835,15.56779 C65.5615,24.06779 56.2985,35.16079 53.3965,50.02179 C51.7425,58.73679 52.0925,66.35379 52.0925,73.96379 L52.0925,133.9348 C52.0925,155.1098 44.2125,170.8458 33.5255,181.1438 C27.5055,187.1068 14.6555,192.5528 0.0405,197.4748 L0.0405,224.5648 C12.9935,228.1358 25.4625,232.9698 32.3795,239.1088 C43.8295,249.1118 52.0825,263.5048 52.0825,282.3088 L52.0825,352.3458 C52.0825,375.6128 57.6335,393.3368 73.7825,405.4938 C89.9325,417.6438 108.7535,423.6868 130.2465,424.2748 L144.6305,424.1788 L144.6305,389.2558 C133.4105,385.9718 127.1775,382.1628 122.6845,377.8528 C114.5975,370.5288 110.0175,358.6338 110.0175,342.1108 L110.0175,285.5598 C109.7075,266.3258 106.6065,251.2808 99.6015,240.3948 C92.5965,229.5328 78.9275,220.0068 58.5875,211.8008 C81.0355,201.5198 96.0955,188.1128 103.7765,171.5738 C108.3015,161.7378 110.0185,148.4748 110.0185,131.7928 L110.0185,79.94079 C110.0185,62.81279 113.9935,50.81479 120.8805,43.96079 C124.6175,40.23979 131.2645,37.17779 140.4975,34.69779 L155.0965,34.79979 L155.0965,0.46579 L122.7575,0.46579 L122.7575,0.46879 L122.7555,0.46879 L122.7555,0.46879 Z" id="path29" stroke="#404040" stroke-width="5.15089989" fill="#F6F6F6"></path>
        <path d="M257.3525,284.6078 L246.4195,284.6078 C234.5325,284.6078 230.0555,278.3578 230.0555,265.8028 L230.0555,35.05779 C230.0555,21.18279 226.0485,11.44179 220.9185,5.82879 C215.7895,0.23079 206.8845,0.28679 194.2015,0.28679 L169.5115,0.28679 L166.6015,0.23079 L166.6015,0.46879 L166.5775,34.81179 L166.5775,276.9678 C166.5775,296.2258 170.9035,310.3168 178.5995,319.2858 C186.3045,328.2388 199.3215,332.7078 217.6735,332.7078 C230.3645,332.7078 244.8045,331.3718 260.9935,328.6918 C261.8045,325.9878 262.2105,320.1998 262.2105,311.3178 C262.2105,302.4118 260.5895,293.5298 257.3525,284.6078 L257.3525,284.6078 Z" id="path31" fill="#F6F6F6"></path>
      </g>
    </g>
  </g>
</svg>